<?xml version="1.0" encoding="utf-8"?>
<!-- Generator: Adobe Illustrator 19.1.0, SVG Export Plug-In . SVG Version: 6.00 Build 0)  -->
<!DOCTYPE svg PUBLIC "-//W3C//DTD SVG 1.1//EN" "http://www.w3.org/Graphics/SVG/1.1/DTD/svg11.dtd">
<svg version="1.1" id="Layer_1" xmlns="http://www.w3.org/2000/svg" xmlns:xlink="http://www.w3.org/1999/xlink" x="0px" y="0px"
	 viewBox="0 0 480 320" style="enable-background:new 0 0 480 320;" xml:space="preserve">
<style type="text/css">
	.st0{fill:#FFFFFF;}
</style>
<g>
	<path class="st0" d="M20,124.7h5.7V185H20V124.7z"/>
	<path class="st0" d="M36.7,124.7h25.5c10.1,0,19.4,3.5,19.4,14.8c0,6.3-4.2,12.2-10.5,13.5v0.2c7.8,1,12.8,6.8,12.8,14.7
		c0,5.7-2,17.2-21.6,17.2H36.7V124.7z M42.5,151.1h19.8c9.1,0,13.6-4.6,13.6-10.2c0-7.5-4.6-11.3-13.6-11.3H42.5V151.1z M42.5,180.1
		h19.8c8.5,0,15.9-2.6,15.9-12.4c0-7.8-5.7-11.7-15.9-11.7H42.5V180.1z"/>
	<path class="st0" d="M91.3,124.7h8.5l20.9,52.9l20.8-52.9h8.5V185h-5.7v-52.1H144L123.4,185H118l-20.7-52.1h-0.2V185h-5.7V124.7z"
		/>
	<path class="st0" d="M238.3,185h-13.2l-10.2-41.1h-0.2L204.7,185h-13.4l-16-60.3h13.3l9.5,41.1h0.2l10.5-41.1h12.4l10.3,41.6h0.2
		l9.9-41.6h13L238.3,185z"/>
	<path class="st0" d="M251.8,154.7c0.7-11.2,10.7-14.6,20.5-14.6c8.7,0,19.2,1.9,19.2,12.4v22.7c0,4,0.4,7.9,1.5,9.7h-12.2
		c-0.4-1.3-0.8-2.8-0.8-4.2c-3.8,4-9.3,5.4-14.7,5.4c-8.4,0-14.9-4.1-14.9-13.1c0.2-19.9,29.6-9.2,29.1-19c0-5.1-3.5-5.9-7.8-5.9
		c-4.6,0-7.5,1.9-7.9,6.6H251.8z M279.6,163.6c-2,1.8-6.3,1.9-10,2.5c-3.7,0.7-7.1,2-7.1,6.4c0,4.4,3.5,5.6,7.4,5.6
		c9.4,0,9.7-7.4,9.7-10.1V163.6z"/>
	<path class="st0" d="M313.4,141.3h8.8v8h-8.8V171c0,4.1,1,5.1,5.1,5.1c1.4,0,2.6-0.1,3.7-0.3v9.4c-2,0.3-4.6,0.4-7,0.4
		c-7.4,0-13.8-1.6-13.8-10.4v-25.8h-7.3v-8h7.3v-13.1h12V141.3z"/>
	<path class="st0" d="M336.9,170.8c0,5.2,4.6,7.4,9.2,7.4c3.4,0,7.9-1.3,7.9-5.6c0-3.6-5.1-5-13.6-6.8c-7-1.6-13.9-3.9-13.9-11.7
		c0-11.2,9.6-14,19-14c9.5,0,18.3,3.2,19.3,13.9h-11.4c-0.3-4.6-3.9-5.9-8.2-5.9c-2.7,0-6.7,0.4-6.7,4.1c0,4.3,6.8,4.9,13.6,6.5
		c7,1.6,13.9,4.1,13.9,12.3c0,11.5-10.1,15.2-19.9,15.2c-10.1,0-20.1-3.8-20.5-15.4H336.9z"/>
	<path class="st0" d="M392,140.1c13.8,0,22.6,9.1,22.6,23.1c0,13.9-8.9,23-22.6,23c-13.7,0-22.6-9.1-22.6-23
		C369.5,149.3,378.4,140.1,392,140.1z M392,177.1c8.2,0,10.6-6.9,10.6-13.9c0-7-2.5-14-10.6-14c-8.1,0-10.6,7-10.6,14
		C381.5,170.2,383.9,177.1,392,177.1z"/>
	<path class="st0" d="M419,141.3h11.4v6.1h0.3c3-5,8.3-7.3,13.4-7.3c12.8,0,16,7.2,16,18V185h-12v-24.7c0-7.2-2-10.7-7.7-10.7
		c-6.5,0-9.3,3.6-9.3,12.5V185h-12V141.3z"/>
</g>
</svg>
