<?xml version="1.0" encoding="utf-8"?>
<!-- Generator: Adobe Illustrator 19.1.0, SVG Export Plug-In . SVG Version: 6.00 Build 0)  -->
<!DOCTYPE svg PUBLIC "-//W3C//DTD SVG 1.1//EN" "http://www.w3.org/Graphics/SVG/1.1/DTD/svg11.dtd">
<svg version="1.1" id="Layer_1" xmlns="http://www.w3.org/2000/svg" xmlns:xlink="http://www.w3.org/1999/xlink" x="0px" y="0px"
	 viewBox="0 0 480 320" style="enable-background:new 0 0 480 320;" xml:space="preserve">
<style type="text/css">
	.st0{fill:#FFFFFF;}
</style>
<g>
	<path class="st0" d="M163.5,181v-35.6c0-2.2,1.8-4,4-4c2.2,0,4,1.8,4,4V181c0,2.2-1.8,4-4,4C165.3,185,163.5,183.2,163.5,181z
		 M209,182.5L191.7,155v26.1c0,2.2-1.8,3.9-3.9,3.9c-2.2,0-3.9-1.8-3.9-3.9v-34.5c0-2.9,2.4-5.3,5.3-5.3h0.2c1.8,0,3.5,0.9,4.5,2.5
		l17.1,27.1v-25.7c0-2.2,1.8-3.9,3.9-3.9c2.2,0,3.9,1.8,3.9,3.9v34.5c0,2.9-2.4,5.3-5.3,5.3C211.7,185,210,184.1,209,182.5
		L209,182.5z M246.7,148.7v32.6c0,2-1.7,3.7-3.7,3.7h-0.6c-2,0-3.7-1.7-3.7-3.7v-32.6h-9.2c-2,0-3.7-1.7-3.7-3.7s1.7-3.7,3.7-3.7
		h26.4c2,0,3.7,1.7,3.7,3.7s-1.7,3.7-3.7,3.7H246.7L246.7,148.7z M266,181.4v-36.5c0-2,1.6-3.6,3.6-3.6h24c2,0,3.6,1.6,3.6,3.6v0.1
		c0,2-1.6,3.6-3.6,3.6H274v10.2h16.8c2,0,3.6,1.6,3.6,3.6c0,2-1.6,3.6-3.6,3.6H274v12h19.6c2,0,3.6,1.6,3.6,3.6v0.1
		c0,2-1.6,3.6-3.6,3.6h-24C267.6,185,266,183.4,266,181.4L266,181.4z M330.6,182.7l-6.2-14.2h-9.7v12.6c0,2.2-1.8,3.9-3.9,3.9h-0.2
		c-2.2,0-3.9-1.8-3.9-3.9v-35.8c0-2.2,1.8-3.9,3.9-3.9h14.5c10.4,0,15.2,6.5,15.2,13.6c0,5.9-3.2,10.5-8,12.3l5.5,12.3
		c1.2,2.6-0.7,5.5-3.6,5.5C332.7,185,331.3,184.1,330.6,182.7L330.6,182.7z M325.1,148.3h-10.5v13.1h10.6c4.5,0,7.1-2.3,7.1-6.5
		C332.4,151.4,329.6,148.3,325.1,148.3L325.1,148.3z M378,180.6c-3.3,3.3-7.8,5.2-12.5,5.2c-4.7,0-9.1-1.5-12.4-4.9
		c-4.7-4.7-5.4-10.6-5.4-17.7s0.7-13,5.4-17.7c3.3-3.3,7.7-4.9,12.4-4.9c4.7,0,9.2,1.7,12.5,5.1c1.1,1.2,2,2.5,2.7,3.9
		c1.2,2.6-0.7,5.5-3.6,5.5h0c-1.6,0-3-1-3.6-2.5c-0.3-0.8-0.8-1.5-1.4-2.2c-1.4-1.8-3.9-2.7-6.6-2.7c-2.5,0-5,1-6.7,2.9
		c-3,3.1-3,8.6-3,12.6c0,4,0,9.4,3,12.6c1.7,1.8,4.2,2.9,6.7,2.9c2.7,0,5.2-1,6.6-2.8c0.6-0.7,1-1.4,1.4-2.3c0.6-1.5,2-2.5,3.7-2.5
		c2.8,0,4.8,2.9,3.6,5.5C380.1,178.1,379.2,179.5,378,180.6L378,180.6z M420.7,180.9c-3.3,3.3-7.9,4.9-12.6,4.9
		c-4.7,0-9.2-1.6-12.6-4.9c-4.7-4.7-5.5-10.5-5.5-17.7s0.8-13,5.5-17.7c3.3-3.3,7.9-4.9,12.6-4.9s9.2,1.6,12.6,4.9
		c4.7,4.7,5.5,10.6,5.5,17.7S425.5,176.1,420.7,180.9L420.7,180.9z M415.1,150.6c-1.7-1.8-4.4-2.9-6.9-2.9c-2.5,0-5.2,1-6.9,2.9
		c-3,3.1-3.1,8.6-3.1,12.6c0,4,0.1,9.4,3.1,12.5c1.7,1.8,4.4,2.9,6.9,2.9c2.5,0,5.2-1,6.9-2.9c3-3.1,3.1-8.5,3.1-12.5
		C418.2,159.2,418.1,153.8,415.1,150.6L415.1,150.6z M472.3,181.2v-27.3L462,181.7c-0.6,1.6-2.2,2.7-3.9,2.7c-1.8,0-3.3-1.1-3.9-2.8
		l-10.3-28.2v27.7c0,2.1-1.7,3.9-3.9,3.9c-2.1,0-3.9-1.7-3.9-3.9v-33.8c0-3.3,2.7-6,6-6h0.5c2.5,0,4.8,1.6,5.6,3.9l10,27.2
		l10.1-27.2c0.9-2.4,3.1-3.9,5.6-3.9c3.3,0,6,2.7,6,6v33.8c0,2.1-1.7,3.9-3.9,3.9C474,185,472.3,183.3,472.3,181.2z M107.9,101.5
		H15.4c-8.5,0-15.4,6.9-15.4,15.4v92.5c0,8.5,6.9,15.4,15.4,15.4h92.5c8.5,0,15.4-6.9,15.4-15.4v-92.5
		C123.3,108.4,116.4,101.5,107.9,101.5z M78.1,124.1c0-2.3,1.8-4.1,4.1-4.1c2.3,0,4.1,1.8,4.1,4.1V179c0,2.3-1.8,4.1-4.1,4.1
		c-2.3,0-4.1-1.8-4.1-4.1V124.1z M57.6,122c0-2.3,1.8-4.1,4.1-4.1c2.3,0,4.1,1.8,4.1,4.1v59.6c0,2.3-1.8,4.1-4.1,4.1
		c-2.3,0-4.1-1.8-4.1-4.1V122z M37,124.1c0-2.3,1.8-4.1,4.1-4.1c2.3,0,4.1,1.8,4.1,4.1V179c0,2.3-1.8,4.1-4.1,4.1
		c-2.3,0-4.1-1.8-4.1-4.1V124.1z M16.4,132.3c0-2.3,1.8-4.1,4.1-4.1c2.3,0,4.1,1.8,4.1,4.1v37c0,2.3-1.8,4.1-4.1,4.1
		s-4.1-1.8-4.1-4.1V132.3z M105.5,195c-0.6,0.5-15.9,13.3-43.8,13.3S18.5,195.6,17.9,195c-1.7-1.5-1.9-4.1-0.4-5.8
		c1.5-1.7,4.1-1.9,5.8-0.5c0.2,0.2,13.8,11.4,38.4,11.4c24.9,0,38.3-11.2,38.4-11.3c1.7-1.5,4.3-1.3,5.8,0.4
		C107.4,191,107.2,193.6,105.5,195L105.5,195z M106.9,169.3c0,2.3-1.8,4.1-4.1,4.1c-2.3,0-4.1-1.8-4.1-4.1v-37
		c0-2.3,1.8-4.1,4.1-4.1c2.3,0,4.1,1.8,4.1,4.1V169.3z"/>
</g>
</svg>
