<?xml version="1.0" encoding="utf-8"?>
<!-- Generator: Adobe Illustrator 19.1.0, SVG Export Plug-In . SVG Version: 6.00 Build 0)  -->
<!DOCTYPE svg PUBLIC "-//W3C//DTD SVG 1.1//EN" "http://www.w3.org/Graphics/SVG/1.1/DTD/svg11.dtd">
<svg version="1.1" id="Layer_1" xmlns="http://www.w3.org/2000/svg" xmlns:xlink="http://www.w3.org/1999/xlink" x="0px" y="0px"
	 viewBox="0 0 480 320" style="enable-background:new 0 0 480 320;" xml:space="preserve">
<style type="text/css">
	.st0{fill:#FFFFFF;}
</style>
<g>
	<path class="st0" d="M49.9,119.4c-0.6-0.2-1.3-0.5-2-0.6c-10.8-3.2-16.9,2-18.5,7.5c-2.1,7.4,1.5,12.5,11.3,20
		c11.9,9.2,16.8,17.8,13.4,29.4c-1.1,3.5-2.7,6.6-5.1,9.2c9.7-3.9,17.5-12,20.6-22.8C74.8,144.7,66.1,126.6,49.9,119.4z"/>
	<path class="st0" d="M32.9,153.2c-11.7-8.5-17.6-17.5-14.3-28.7c0.5-1.7,1.2-3.2,1.9-4.6C11.6,124,4.4,131.7,1.4,142
		c-3.1,10.6-1.1,21.6,4.6,30c3.9,4.9,7.9,8.5,15.6,10.7c10.6,3,19.1-1.2,21.5-9.2C45.4,166,42.5,160.6,32.9,153.2z"/>
	<g>
		<g>
			<path class="st0" d="M103.3,148c-3.1-2.1-5.4-3.9-6.6-5.6c-1.3-1.7-1.9-3.6-1.9-5.8c0-2.3,0.5-4.1,1.5-5.4
				c1.1-1.3,2.5-1.9,4.5-1.9c1.8,0,3.5,0.4,5,1c1.5,0.7,3,1.4,4.4,2.3l3.9-9.8c-4.5-2.9-9.3-4.2-14.3-4.2c-5.2,0-9.3,1.7-12.4,4.9
				c-3.1,3.3-4.6,7.7-4.6,13.4c0,3,0.4,5.5,1.2,7.7c0.8,2.3,1.9,4.2,3.3,6c1.4,1.8,3.6,3.7,6.3,5.6c3.2,2.3,5.5,4.2,6.9,6.1
				c1.4,1.8,2,3.8,2,6c0,2.3-0.6,3.9-1.8,5.2c-1.2,1.3-2.9,1.9-5.2,1.9c-4.1,0-8.5-1.5-13.4-4.8v12c3.9,2.3,8.8,3.3,14.4,3.3
				c5.7,0,10.1-1.7,13.2-4.9c3.1-3.2,4.5-8,4.5-14.1c0-3.8-0.8-7.3-2.5-10.3C110.4,153.8,107.4,150.9,103.3,148z M127.9,115.6
				c-2,0-3.6,0.6-4.8,1.7c-1.2,1.2-1.7,2.7-1.7,4.6c0,2,0.6,3.6,1.8,4.8c1.2,1.1,2.7,1.7,4.6,1.7c1.9,0,3.3-0.6,4.5-1.7
				c1.2-1.1,1.8-2.7,1.8-4.8s-0.6-3.6-1.8-4.6C131.4,116.2,129.8,115.6,127.9,115.6z M122,185.1h11.8v-50H122V185.1z M191.4,134.2
				c-5.6,0-9.5,2.9-12.2,8.7h-0.5c-2-5.7-6.1-8.7-12-8.7c-2.4,0-4.5,0.6-6.6,1.8c-2,1.2-3.7,3.1-4.9,5.6h-0.7l-1.4-6.4h-9.3v50h11.8
				v-24c0-6,0.6-10.3,1.8-12.9c1.2-2.6,3-3.9,5.5-3.9c3.6,0,5.5,3.7,5.5,11v29.8h11.9v-24.3c0-5.7,0.6-10,1.7-12.6
				c1.1-2.6,3-3.9,5.6-3.9c3.6,0,5.4,3.7,5.4,11V185h11.9v-32.7c0-6-1.1-10.5-3.3-13.6C199.1,135.8,195.8,134.2,191.4,134.2z
				 M214.4,185.1h11.8v-50h-11.8V185.1z M220.3,115.6c-2,0-3.6,0.6-4.8,1.7c-1.2,1.2-1.7,2.7-1.7,4.6c0,2,0.6,3.6,1.8,4.8
				c1.2,1.1,2.7,1.7,4.6,1.7c1.9,0,3.3-0.6,4.5-1.7c1.2-1.1,1.8-2.7,1.8-4.8s-0.6-3.6-1.8-4.6C223.8,116.2,222.2,115.6,220.3,115.6z
				 M236.3,185.1h11.8v-69.9h-11.8V185.1z M274.8,134.1c-5.7,0-11.1,1.5-16,4.8l4.1,8.2c3.8-2.4,7.3-3.5,10.3-3.5c3.9,0,6,2.4,6,7
				v3.6l-6.6,0.2c-5.7,0.2-9.9,1.7-12.8,4.3c-2.9,2.5-4.3,6.4-4.3,11.7c0,4.9,1.1,8.7,3.1,11.4s4.9,4.2,8.6,4.2c2.9,0,5.2-0.6,7-1.7
				c1.9-1.1,3.7-3.1,5.4-6.1h0.2l2.4,6.8h8.7v-33.6c0-5.6-1.3-9.9-4.1-12.9C284,135.6,279.9,134.1,274.8,134.1z M279,165.9
				c0,3.2-0.6,5.8-1.9,7.9c-1.3,1.9-3,3-5.1,3c-2.9,0-4.3-2-4.3-6.2c0-2.7,0.6-4.9,1.9-6.3s3.2-2.1,6-2.4l3.6-0.2v4.3H279z
				 M316.1,136.2c-1.5,1.3-3,3.6-4.3,6.7h-0.4l-1.3-7.9h-9.7v50h11.8v-25.8c0-4.4,0.7-7.7,2.3-10c1.5-2.3,3.7-3.5,6.6-3.5
				c1.3,0,2.4,0.1,3.2,0.5l1.4-11.6c-1.4-0.5-2.9-0.7-4.3-0.7C319.4,134.2,317.6,134.8,316.1,136.2z M379.5,156.5
				c-0.5,2.9-1.2,8.7-2.3,17.5c-0.5-6-1.3-11.8-2.1-17.3l-6.9-37.3h-12.5l-6.9,37.3c-0.6,3.5-1.3,9.2-2,17.2c-1-8-1.7-13.7-2.3-17.4
				l-5.8-37.1h-11.8l11.8,65.6h15l6.2-34.2l1.8-13.5l0.4-3.3c0.4,6.4,1.1,11.9,2,16.7l6.3,34.3h15l11.7-65.6h-11.9L379.5,156.5z
				 M418.1,134.2c-5.7,0-10.3,2.3-13.5,6.9c-3.2,4.6-4.9,11.1-4.9,19.3c0,8.1,1.8,14.4,5.4,18.8s8.5,6.7,14.7,6.7
				c5.2,0,9.8-1.2,13.6-3.5v-9.8c-4.1,2.4-8,3.6-11.8,3.6c-3,0-5.4-1.1-7.2-3.2c-1.7-2.1-2.6-5.5-2.7-9.9h23.7v-6.3
				c0-7.2-1.5-12.8-4.6-16.7C427.7,136.1,423.5,134.2,418.1,134.2z M411.9,154.5c0.1-3.8,0.8-6.6,1.9-8.5c1.1-1.8,2.5-2.7,4.2-2.7
				c1.8,0,3.2,1,4.3,2.9c1.1,1.9,1.5,4.6,1.7,8.3L411.9,154.5L411.9,154.5z M476.2,141c-2.6-4.5-6.1-6.8-10.6-6.8
				c-2.1,0-4.2,0.6-5.8,1.7c-1.7,1.1-3.2,3-4.6,5.8h-0.6c0.4-4.5,0.6-7.2,0.6-7.9s0-1.4,0-2.1v-16.3h-11.8v69.9h8.7l2-5.7h0.7
				c1.5,2.5,3.1,4.2,4.8,5.1c1.7,1,3.7,1.4,5.8,1.4c4.5,0,8.1-2.3,10.7-6.8c2.6-4.5,3.9-11,3.9-19.2
				C480,151.9,478.7,145.5,476.2,141z M461.5,175.7c-2.3,0-3.9-1.2-5-3.6c-1.1-2.4-1.5-6.4-1.5-12.3v-1.2c0-5.4,0.6-9.1,1.5-11.2
				c1-2.1,2.6-3.2,4.9-3.2c4.3,0,6.4,5.1,6.4,15.5C468,170.5,465.8,175.7,461.5,175.7z"/>
		</g>
	</g>
</g>
</svg>
