<?xml version="1.0" encoding="utf-8"?>
<!-- Generator: Adobe Illustrator 19.1.0, SVG Export Plug-In . SVG Version: 6.00 Build 0)  -->
<!DOCTYPE svg PUBLIC "-//W3C//DTD SVG 1.1//EN" "http://www.w3.org/Graphics/SVG/1.1/DTD/svg11.dtd">
<svg version="1.1" id="Layer_1" xmlns="http://www.w3.org/2000/svg" xmlns:xlink="http://www.w3.org/1999/xlink" x="0px" y="0px"
	 viewBox="0 0 480 320" style="enable-background:new 0 0 480 320;" xml:space="preserve">
<style type="text/css">
	.st0{fill:#FFFFFF;}
</style>
<g>
	<g>
		<circle class="st0" cx="32.6" cy="199.7" r="12.6"/>
		<path class="st0" d="M227.5,136.1c-21.1,0-38.3,17.1-38.3,38.3s17.1,38.3,38.3,38.3s38.3-17.1,38.3-38.3S248.6,136.1,227.5,136.1z
			 M227.5,196.6c-12.2,0-22.2-9.9-22.2-22.2c0-12.2,9.9-22.2,22.2-22.2c12.2,0,22.2,9.9,22.2,22.2
			C249.6,186.6,239.7,196.6,227.5,196.6z"/>
		<path class="st0" d="M184.5,204.3c0-4.4-3.6-8-8-8h0h-0.8h-21v0c-3.3,0-5.9-2.6-5.9-5.9c0-0.1,0-0.1,0-0.2v-20.8v-24.8
			c0-4.4-3.6-8-8-8s-8,3.6-8,8v45.8v0c0,12,9.8,21.8,21.8,21.8v0.1h21.8v0C181,212.3,184.5,208.7,184.5,204.3z"/>
		<path class="st0" d="M343.8,136.1c-4.4,0-8,3.6-8,8c0,0,0,0.1,0,0.1l0,30.2c0,12.2-9.9,22.2-22.2,22.2c-12.2,0-22.2-9.9-22.2-22.2
			l0-30.5c-0.1-4.3-3.7-7.8-8-7.8c-4.4,0-8.1,3.6-8.1,8.1c0,0,0,0.1,0,0.1v30.2c0,21.1,17.1,38.3,38.3,38.3
			c21.1,0,38.3-17.1,38.3-38.3l0-30.5C351.7,139.6,348.1,136.1,343.8,136.1z"/>
		<path class="st0" d="M115.4,186.7c-2.4,0-4.5,1.1-6,2.7c-4.1,4.4-9.8,7.1-16.3,7.1c-12.2,0-22.2-9.9-22.2-22.2
			c0-12.2,9.9-22.2,22.2-22.2c6.6,0,12.5,2.9,16.6,7.5l0,0c1.5,1.4,3.5,2.3,5.7,2.3c4.4,0,8-3.6,8-8c0-2.3-1-4.4-2.6-5.9
			c-7-7.3-16.8-11.9-27.7-11.9c-21.1,0-38.3,17.1-38.3,38.3s17.1,38.3,38.3,38.3c11,0,20.9-4.6,27.9-12.1l0,0
			c1.5-1.5,2.5-3.5,2.5-5.8C123.4,190.3,119.8,186.7,115.4,186.7z"/>
		<path class="st0" d="M400.4,136.1l-30.5,0c-4.3,0.1-7.8,3.6-7.8,8H362v60.5h0.1c0,0,0,0,0,0c0,4.4,3.6,8.1,8.1,8.1
			c0,0,0.1,0,0.1,0h30.2c21.1,0,38.3-17.1,38.3-38.3S421.5,136.1,400.4,136.1z M400.4,196.5l-22.5,0v-44.4l22.5,0
			c12.2,0,22.2,9.9,22.2,22.2C422.6,186.6,412.6,196.5,400.4,196.5z"/>
	</g>
	<g>
		<circle class="st0" cx="313.9" cy="122.9" r="12.9"/>
		<circle class="st0" cx="447.1" cy="122.9" r="12.9"/>
		<circle class="st0" cx="358.5" cy="91.1" r="31.7"/>
		<circle class="st0" cx="414.8" cy="104" r="19.4"/>
	</g>
</g>
</svg>
