<?xml version="1.0" encoding="utf-8"?>
<!-- Generator: Adobe Illustrator 19.1.0, SVG Export Plug-In . SVG Version: 6.00 Build 0)  -->
<!DOCTYPE svg PUBLIC "-//W3C//DTD SVG 1.1//EN" "http://www.w3.org/Graphics/SVG/1.1/DTD/svg11.dtd">
<svg version="1.1" id="Layer_1" xmlns="http://www.w3.org/2000/svg" xmlns:xlink="http://www.w3.org/1999/xlink" x="0px" y="0px"
	 viewBox="0 0 480 320" style="enable-background:new 0 0 480 320;" xml:space="preserve">
<style type="text/css">
	.st0{fill:#FFFFFF;}
</style>
<g>
	<g id="Page-1_1_">
		<g id="Features-Landing_1_" transform="translate(-87.000000, -44.000000)">
			<g id="Header-Block-2_1_" transform="translate(-2.000000, 0.407080)">
				<g id="_x31__x5F_Braintree_x5F_Logo_x5F_Master_x5F_File_1_" transform="translate(89.000000, 44.000000)">
					<path id="Fill-1_1_" class="st0" d="M15.6,176.3h11.2c8.6,0,13-2.8,13-8.3c0-5.4-4.6-8.3-13.6-8.3H15.6V176.3L15.6,176.3z
						 M15.6,136.3v15.4h9.8c7.4,0,11.2-2.7,11.2-7.7c0-5.1-3.9-7.7-11.3-7.7L15.6,136.3L15.6,136.3z M0,184.6v-8.3h6.6v-40H0V128
						h26.3c12.1,0,19.4,5.6,19.4,15.2c0,6.3-3.7,10.2-8.4,12.1c6.8,1.9,11.6,6.6,11.6,13.2c0,10.3-8,16.1-21.2,16.1L0,184.6L0,184.6
						z"/>
					<path id="Fill-2_1_" class="st0" d="M96.5,155.1c-1-3.3-3.4-5.3-6.7-5.3c-7.6,0-14.7,5.6-14.7,15.7v10.7h14.5v8.3H57.3v-8.3
						h9.2v-25h-7.3V143H75v7c2.6-4.9,8-8.4,15.2-8.4c8,0,13,4.6,14.5,11.1L96.5,155.1"/>
					<path id="Fill-3_1_" class="st0" d="M140.7,167.8c-2.7-1-6.9-1.8-10.7-1.8c-5.5,0-10.8,1.8-10.8,6.7c0,3.7,3.3,5.5,7.9,5.5
						c6.4,0,13.5-3.4,13.5-9.3L140.7,167.8L140.7,167.8L140.7,167.8z M140.7,160.4v-2.3c0-5.9-4.7-8.3-9.8-8.3c-4.8,0-8.9,2-12.3,5
						l-5.7-6.1c3.9-3.6,9.5-6.9,18-6.9c10.5,0,18.6,5.6,18.6,16.1v18.5h6.1v8.3h-14.9v-4.4c-2.3,3.6-8.3,5.8-14.3,5.8
						c-8.6,0-16.1-4.4-16.1-13.1c0-10.2,10.1-14.1,19.3-14.1C134.1,158.7,137.8,159.6,140.7,160.4L140.7,160.4z"/>
					<path id="Fill-4_1_" class="st0" d="M182.2,122.1h9.7v12.7h-9.7V122.1z M208,176.3v8.3h-42.2v-8.3h17.5v-25h-13.3V143h22v33.3
						L208,176.3L208,176.3L208,176.3z"/>
					<path id="Fill-5_1_" class="st0" d="M218.4,176.3h6.4v-25h-6V143h14.5v5.4c2.6-4.1,7.8-6.7,14.3-6.7c9.3,0,16,5.9,16,15.3v19.3
						h6.4v8.3h-21.7v-8.3h6.7v-17c0-7.2-4.4-9.3-8.4-9.3c-6.6,0-13.1,4.9-13.1,12.4v13.9h6.7v8.3h-21.7L218.4,176.3"/>
					<path id="Fill-6_1_" class="st0" d="M281.8,151.3H271V143h10.9v-15h8.6v15h20.3v8.3h-20.3v17.5c0,6.4,4.5,9.1,9.7,9.1
						c4.9,0,9-2.7,12.1-5.8l5.8,6c-3.8,4.1-9.7,7.9-17.9,7.9c-10.5,0-18.3-5.8-18.3-16.9L281.8,151.3"/>
					<path id="Fill-7_1_" class="st0" d="M365.1,155.1c-1-3.3-3.4-5.3-6.7-5.3c-7.6,0-14.7,5.6-14.7,15.7v10.7h14.5v8.3h-32.4v-8.3
						h9.2v-25h-7.3V143h15.8v7c2.6-4.9,8-8.4,15.2-8.4c8,0,13,4.6,14.5,11.1L365.1,155.1"/>
					<path id="Fill-8_1_" class="st0" d="M388.4,159.5h25.7c-1.3-5.9-6.6-9.9-12.5-9.9C395,149.6,389.9,153.7,388.4,159.5
						L388.4,159.5z M423.2,178.3c-4.3,4.5-12,7.7-20.5,7.7c-14,0-23.8-9.4-23.8-22.1c0-12.8,9.5-22.1,22.8-22.1
						c13.1,0,22.4,10,22.4,23.7v1.5h-36c1.5,6.9,7.3,11.1,14.8,11.1c6.3,0,11.7-2.5,14.6-5.8L423.2,178.3L423.2,178.3z"/>
					<path id="Fill-9_1_" class="st0" d="M442.1,159.5h25.7c-1.3-5.9-6.6-9.9-12.5-9.9C448.6,149.6,443.5,153.7,442.1,159.5
						L442.1,159.5z M476.9,178.3c-4.3,4.5-12,7.7-20.5,7.7c-14,0-23.8-9.4-23.8-22.1c0-12.8,9.5-22.1,22.8-22.1
						c13.1,0,22.4,10,22.4,23.7v1.5h-36c1.5,6.9,7.3,11.1,14.8,11.1c6.3,0,11.7-2.5,14.6-5.8L476.9,178.3L476.9,178.3z"/>
				</g>
			</g>
		</g>
	</g>
	<g>
		<g>
			<g>
				<g>
					<g>
						<path class="st0" d="M298.2,200.5H287c-0.8,0-1.4,0.6-1.5,1.3l-4.6,28.9c-0.1,0.6,0.4,1.1,0.9,1.1h5.8c0.5,0,1-0.4,1.1-0.9
							l1.3-8.2c0.1-0.8,0.8-1.3,1.5-1.3h3.6c7.4,0,11.7-3.6,12.8-10.7c0.5-3.1,0-5.6-1.4-7.3C304.9,201.5,302,200.5,298.2,200.5z
							 M299.5,211.1c-0.6,4.1-3.7,4.1-6.7,4.1h-1.7l1.2-7.6c0.1-0.5,0.5-0.8,0.9-0.8h0.8c2,0,4,0,5,1.2
							C299.6,208.7,299.8,209.7,299.5,211.1z"/>
						<path class="st0" d="M217.8,200.5h-11.3c-0.8,0-1.4,0.6-1.5,1.3l-4.6,28.9c-0.1,0.6,0.4,1.1,0.9,1.1h5.4
							c0.8,0,1.4-0.6,1.5-1.3l1.2-7.8c0.1-0.8,0.8-1.3,1.5-1.3h3.6c7.4,0,11.7-3.6,12.8-10.7c0.5-3.1,0-5.6-1.4-7.3
							C224.4,201.5,221.5,200.5,217.8,200.5z M219.1,211.1c-0.6,4.1-3.7,4.1-6.7,4.1h-1.7l1.2-7.6c0.1-0.5,0.5-0.8,0.9-0.8h0.8
							c2,0,4,0,5,1.2C219.1,208.7,219.3,209.7,219.1,211.1z"/>
						<path class="st0" d="M251.5,211h-5.4c-0.5,0-0.9,0.3-0.9,0.8l-0.2,1.5l-0.4-0.5c-1.2-1.7-3.8-2.3-6.4-2.3
							c-6,0-11.1,4.5-12.1,10.9c-0.5,3.2,0.2,6.2,2,8.3c1.6,1.9,4,2.7,6.8,2.7c4.8,0,7.5-3.1,7.5-3.1l-0.2,1.5
							c-0.1,0.6,0.4,1.1,0.9,1.1h4.9c0.8,0,1.4-0.6,1.5-1.3l2.9-18.5C252.5,211.5,252.1,211,251.5,211z M244,221.5
							c-0.5,3.1-3,5.2-6.1,5.2c-1.6,0-2.8-0.5-3.6-1.5c-0.8-0.9-1.1-2.3-0.8-3.8c0.5-3.1,3-5.2,6.1-5.2c1.5,0,2.8,0.5,3.6,1.5
							C243.9,218.6,244.2,220,244,221.5z"/>
						<path class="st0" d="M332,211h-5.4c-0.5,0-0.9,0.3-0.9,0.8l-0.2,1.5l-0.4-0.5c-1.2-1.7-3.8-2.3-6.4-2.3
							c-6,0-11.1,4.5-12.1,10.9c-0.5,3.2,0.2,6.2,2,8.3c1.6,1.9,4,2.7,6.8,2.7c4.8,0,7.5-3.1,7.5-3.1l-0.2,1.5
							c-0.1,0.6,0.4,1.1,0.9,1.1h4.9c0.8,0,1.4-0.6,1.5-1.3l2.9-18.5C333,211.5,332.5,211,332,211z M324.4,221.5
							c-0.5,3.1-3,5.2-6.1,5.2c-1.6,0-2.8-0.5-3.6-1.5c-0.8-0.9-1.1-2.3-0.8-3.8c0.5-3.1,3-5.2,6.1-5.2c1.5,0,2.8,0.5,3.6,1.5
							C324.3,218.6,324.7,220,324.4,221.5z"/>
						<path class="st0" d="M280.3,211h-5.4c-0.5,0-1,0.3-1.3,0.7l-7.5,11l-3.2-10.6c-0.2-0.7-0.8-1.1-1.5-1.1H256
							c-0.6,0-1.1,0.6-0.9,1.2l6,17.6l-5.6,7.9c-0.4,0.6,0,1.5,0.8,1.5h5.4c0.5,0,1-0.3,1.3-0.7l18.1-26.1
							C281.5,211.8,281,211,280.3,211z"/>
					</g>
				</g>
				<g>
					<path class="st0" d="M338.3,201.3l-4.6,29.5c-0.1,0.6,0.4,1.1,0.9,1.1h4.7c0.8,0,1.4-0.6,1.5-1.3l4.6-28.9
						c0.1-0.6-0.4-1.1-0.9-1.1h-5.2C338.8,200.5,338.4,200.9,338.3,201.3z"/>
				</g>
			</g>
		</g>
		<g>
			<path class="st0" d="M360.3,231.2c-1.4-0.9-2.4-2.1-3-3.5s-1-3-1-4.6c0-2.3,0.5-4.5,1.6-6.4c1.1-1.9,2.6-3.5,4.5-4.6
				c1.9-1.1,4.1-1.7,6.4-1.7c1.2,0,2.3,0.2,3.3,0.5c0.9,0.3,1.8,0.7,2.6,1.2l-0.5,3.1c-1.6-1.5-3.5-2.2-5.8-2.2
				c-1.6,0-3.1,0.4-4.5,1.3c-1.4,0.9-2.6,2.1-3.5,3.6c-0.9,1.5-1.3,3.2-1.3,5c0,1.4,0.3,2.6,0.8,3.7c0.5,1.1,1.3,1.9,2.3,2.5
				c1,0.6,2.1,0.9,3.5,0.9c2.3,0,4.5-0.7,6.5-2.2l-0.5,3.1c-1.1,0.6-2.1,1-3,1.3s-2.1,0.4-3.4,0.4
				C363.4,232.6,361.7,232.1,360.3,231.2z"/>
			<path class="st0" d="M386.4,217.3c1,0.6,1.8,1.4,2.4,2.5s0.9,2.2,0.9,3.6c0,1.5-0.4,3-1.1,4.4c-0.7,1.4-1.8,2.5-3.2,3.4
				c-1.4,0.9-2.9,1.3-4.7,1.3c-1.3,0-2.5-0.3-3.5-0.9c-1-0.6-1.8-1.4-2.4-2.5c-0.6-1.1-0.9-2.3-0.9-3.6c0-1.5,0.4-3,1.1-4.4
				c0.7-1.4,1.8-2.5,3.2-3.4c1.4-0.9,2.9-1.3,4.7-1.3C384.2,216.4,385.4,216.7,386.4,217.3z M379.6,219.8c-0.9,0.6-1.6,1.4-2.1,2.4
				c-0.5,1-0.8,2-0.8,3.1c0,1.4,0.4,2.5,1.2,3.3c0.8,0.9,1.8,1.3,3,1.3c1.2,0,2.2-0.3,3.2-0.9s1.6-1.4,2.1-2.4c0.5-1,0.8-2,0.8-3.1
				c0-1.3-0.4-2.4-1.2-3.3c-0.8-0.8-1.8-1.3-3-1.3C381.6,218.9,380.5,219.2,379.6,219.8z"/>
			<path class="st0" d="M413.9,217.7c0.8,0.8,1.2,2,1.2,3.5c0,0.6,0,1.1-0.1,1.5l-1.4,9.1h-2.8l1.4-8.9c0.1-0.4,0.1-0.7,0.1-1
				c0-1-0.2-1.7-0.7-2.3c-0.5-0.5-1.2-0.8-2.2-0.8c-1.3,0-2.4,0.5-3.3,1.5c-0.9,1-1.5,2.3-1.7,3.8l-1.2,7.7h-2.7l1.4-8.5
				c0.1-0.4,0.1-0.8,0.1-1.2c0-1.1-0.3-1.9-0.8-2.5c-0.5-0.6-1.2-0.9-2.1-0.9c-1.2,0-2.3,0.5-3.2,1.5c-0.9,1-1.6,2.3-1.8,3.8
				l-1.2,7.7H390l2.4-15h2.6l-0.4,2.4c0.7-0.9,1.4-1.6,2.3-2.1c0.9-0.5,1.9-0.8,3.1-0.8c1.1,0,2.1,0.3,2.9,0.9
				c0.8,0.6,1.3,1.4,1.5,2.5c1.5-2.2,3.4-3.3,5.9-3.3C411.9,216.4,413.1,216.8,413.9,217.7z"/>
			<path class="st0" d="M421,216.9l-0.4,2.3c0.7-0.9,1.5-1.5,2.5-2c1-0.5,2.1-0.8,3.3-0.8c1.2,0,2.2,0.3,3.2,0.9
				c1,0.6,1.7,1.4,2.2,2.4c0.5,1,0.8,2.2,0.8,3.5c0,1.6-0.4,3.2-1.2,4.6c-0.8,1.4-1.8,2.6-3.1,3.4c-1.3,0.8-2.6,1.3-4,1.3
				c-2.6,0-4.3-1-5.3-3l-1.4,8.9h-2.8l3.4-21.5H421z M428.6,220.2c-0.8-0.9-1.8-1.3-3.1-1.3c-1,0-2,0.3-2.9,0.8
				c-0.9,0.6-1.6,1.3-2.1,2.3c-0.5,1-0.8,2.1-0.8,3.3c0,1.4,0.4,2.5,1.2,3.3c0.8,0.9,1.7,1.3,2.9,1.3c1,0,2-0.3,2.9-0.9
				c0.9-0.6,1.7-1.4,2.2-2.3c0.6-1,0.8-2.1,0.8-3.2C429.8,222.2,429.4,221,428.6,220.2z"/>
			<path class="st0" d="M438.8,219.2c-0.8,0.2-1.6,0.5-2.2,0.9l0.4-2.5c0.6-0.4,1.4-0.7,2.2-0.9c0.9-0.2,1.7-0.3,2.5-0.3
				c2,0,3.5,0.4,4.4,1.2c1,0.8,1.5,2.1,1.5,3.8c0,0.5-0.1,1-0.2,1.7l-1.4,8.7h-2.7l0.3-2.1c-1.4,1.7-3.3,2.6-5.7,2.6
				c-1.5,0-2.6-0.4-3.4-1.1c-0.8-0.7-1.2-1.7-1.2-2.9c0-1.9,0.7-3.3,2-4.3c1.4-1,3.2-1.5,5.5-1.5c1.5,0,2.8,0.2,3.8,0.5
				c0.1-0.4,0.1-0.7,0.1-1c0-2.1-1.2-3.1-3.7-3.1C440.5,218.8,439.7,218.9,438.8,219.2z M442.5,228.8c1-0.9,1.7-2.1,2-3.5
				c-1-0.3-2.2-0.4-3.4-0.4c-1.6,0-2.8,0.3-3.6,0.8c-0.8,0.6-1.3,1.3-1.3,2.3c0,0.7,0.2,1.2,0.7,1.6c0.5,0.4,1.2,0.6,2,0.6
				C440.2,230.1,441.5,229.7,442.5,228.8z"/>
			<path class="st0" d="M462.7,217.8c0.9,0.9,1.3,2.2,1.3,3.8c0,0.6,0,1.1-0.1,1.6l-1.4,8.7h-2.7l1.4-8.5c0.1-0.4,0.1-0.8,0.1-1.1
				c0-1.1-0.3-1.9-0.9-2.5c-0.6-0.6-1.4-0.9-2.5-0.9c-1.4,0-2.6,0.5-3.5,1.5c-1,1-1.6,2.3-1.8,3.8l-1.2,7.7h-2.7l2.4-15h2.6
				l-0.4,2.4c0.7-0.9,1.5-1.6,2.5-2.1c1-0.5,2.1-0.8,3.3-0.8C460.6,216.4,461.9,216.8,462.7,217.8z"/>
			<path class="st0" d="M469,231.3l-3.5-14.4h2.8l2.7,11.2l6.1-11.2h2.9l-12.2,21.5h-2.9L469,231.3z"/>
		</g>
		<g>
			<path class="st0" d="M174.7,227l-2.5,4.8H169l11.3-21.2h2.8l4.6,21.2h-2.9l-1-4.8H174.7z M181.2,214.5l-5.2,10h7.3L181.2,214.5z"
				/>
		</g>
	</g>
</g>
</svg>
