<?xml version="1.0" encoding="utf-8"?>
<!-- Generator: Adobe Illustrator 19.1.0, SVG Export Plug-In . SVG Version: 6.00 Build 0)  -->
<!DOCTYPE svg PUBLIC "-//W3C//DTD SVG 1.1//EN" "http://www.w3.org/Graphics/SVG/1.1/DTD/svg11.dtd">
<svg version="1.1" id="Layer_1" xmlns="http://www.w3.org/2000/svg" xmlns:xlink="http://www.w3.org/1999/xlink" x="0px" y="0px"
	 viewBox="0 0 480 320" style="enable-background:new 0 0 480 320;" xml:space="preserve">
<style type="text/css">
	.st0{fill:#FFFFFF;}
</style>
<g>
	<g>
		<path class="st0" d="M144.5,129.1v7.6h0.5c13.6-8.2,27.7-8.8,36.1-8.8c22.7,0,30.4,6.5,33.3,8.8c5.2-3,16.5-8.8,35.8-8.8
			c38.6,0,38.6,15.2,38.6,21.4V185h-31.1v-31.9c0-6.6,0-13.9-16.6-13.9c-8.2,0-16.5,2.5-19.5,6.1c-2.7,3.1-3.9,5.9-3.9,12.8V185
			h-31.1v-30.7c0-9.5,0.2-15.2-16.1-15.2c-8.2,0-16.5,2.2-19.7,5.4c-2.5,2.5-4.1,5.1-4.1,13.3V185h-31v-55.9L144.5,129.1
			L144.5,129.1z"/>
		<path class="st0" d="M363.6,141.5h-22.5v22.4c0,7.9,0,10.5,9.2,10.5c4.4,0,8.2-0.5,12.4-1.3l1-0.1l2.9,11.4
			c-10.9,2-22.8,2.2-26.2,2.2c-10.2,0-23.3-1.5-28.1-5.7c-4.1-3.4-4.6-6.8-4.6-15.2v-24.2h-15.3v-11.7h15.3v-11l33.4-8.7v19.7h22.5
			L363.6,141.5L363.6,141.5z"/>
		<path class="st0" d="M100.5,216.6C88.2,198,80,175.8,80,153.6c0-26.3,10.3-47.8,20.8-62.8h12.5c-9.3,20.5-15.6,38-15.6,63.4
			c0,29.1,10.3,51.5,15,61.7c0.1,0.1,0.4,0.7,0.4,0.8L100.5,216.6L100.5,216.6z"/>
		<path class="st0" d="M379.5,91c12.3,18.6,20.5,40.8,20.5,63.1c0,26.3-10.3,47.7-20.8,62.8h-12.5c9.3-20.6,15.6-38,15.6-63.3
			c0-29.1-10.3-51.5-15-61.7c-0.1-0.1-0.4-0.7-0.4-0.8L379.5,91z"/>
	</g>
	<g>
		<path class="st0" d="M119.1,199.5h3.6v1.6h0.1c1.3-1,3.7-1.9,7.1-1.9c3.4,0,5.8,0.7,6.8,2.1c0.8-0.6,2.9-2.1,7.4-2.1
			c7.4,0,7.4,3.1,7.4,4v8.1h-4.1v-7.4c0-1.1,0-2.9-4.3-2.9c-1.7,0-3.8,0.4-4.8,1.2c-0.8,0.7-1.1,1.4-1.1,2.2v6.8h-4v-7.6
			c0-1.1-0.2-2.6-4.2-2.6c-2.2,0-4.2,0.6-4.9,1.4c-0.9,1-1,1.8-1,2.8v6.1h-4.1L119.1,199.5L119.1,199.5z"/>
		<path class="st0" d="M158.4,204.2c0.2-1.5,2.3-3.4,6.8-3.4c2.9,0,5.2,0.9,6,1.9c0.5,0.6,0.6,1.1,0.7,1.5L158.4,204.2 M171.8,207.5
			c-0.5,0.7-1.8,2.4-6.3,2.4c-3.6,0-7-1.2-7.3-4h17.9c0.4-6.3-8.8-6.6-10.8-6.6c-7.3,0-11.2,2.7-11.2,6.2c0,3.6,4,6.1,11.4,6.1
			c5.9,0,9.3-1.6,10.5-3.8L171.8,207.5z"/>
		<path class="st0" d="M181.4,205.4c0-0.9,0.3-4.5,6.4-4.5c4.9,0,6.5,2.4,6.5,4.7c0,4-5.1,4.3-6.4,4.3
			C185.6,209.9,181.4,209.1,181.4,205.4 M194.2,211.2h3.8V195h-4.1v5.8h-0.1c-1.2-0.9-3.5-1.6-6.5-1.6c-6,0-10.1,2.3-10.1,6.1
			c0,3.8,4.6,6.1,10.3,6.1c0.9,0,4.4,0,6.6-1.8h0.1L194.2,211.2L194.2,211.2z"/>
		<path class="st0" d="M202,199.5h4.1v11.7H202V199.5 M202,195h4.1v2.3H202V195z"/>
		<path class="st0" d="M225.3,206.1c0,1-0.2,1.9-1.8,2.8c-1.9,1-4.6,1.1-5.8,1.1c-3.7,0-4.8-1-4.8-1.9c0-1.6,3.2-1.8,5.7-2
			c2.1-0.2,5.1-0.5,6.7-0.7L225.3,206.1 M213.2,203.1c0.5-1,1.2-2.2,6.2-2.2c5.9,0,5.9,1.7,5.8,2.9c-2.3,0.4-6.7,0.6-7.3,0.7
			c-2.6,0.2-9.4,0.5-9.4,3.7c0,1.9,2.9,3.4,8.2,3.4c2.6,0,5.4-0.3,8.8-1.7c0.1,0.3,0.2,0.8,0.8,1.4h4.2c-1.3-1.1-1.3-1.9-1.3-4.9
			v-2.7c0-2,0-4.4-9.3-4.4c-9.2,0-10.3,2.6-10.8,3.6L213.2,203.1z"/>
		<path class="st0" d="M244.4,202h-4.3v4.7c0,1.7,0,2.2,1.8,2.2c0.8,0,1.6-0.1,2.4-0.3l0.2,0l0.6,2.4c-2.1,0.4-4.3,0.5-5,0.5
			c-1.9,0-4.4-0.3-5.3-1.2c-0.8-0.7-0.9-1.4-0.9-3.2V202h-2.9v-2.5h2.9v-2.3l6.4-1.8v4.2h4.3L244.4,202L244.4,202z"/>
		<path class="st0" d="M250.7,204.4c-0.1-1.5,1.7-2.7,4.7-2.7c1,0,4.6,0.2,4.7,2.7H250.7 M259.8,207.5c-0.3,0.5-1.1,1.6-4,1.6
			c-3.6,0-5.1-1.5-5.2-2.9h15.9c0.1-3.5-2.3-7-11.3-7c-7.6,0-11,3-11,6.2c0,1,0.4,2.1,1.4,3.3c2.5,2.7,8.1,2.8,10.1,2.8
			c7.9,0,9.9-2.8,10.4-3.5L259.8,207.5z"/>
		<path class="st0" d="M273.9,199.5v1.6h0.1c2.8-1.7,5.6-1.9,7.3-1.9c4.6,0,6.2,1.4,6.8,1.9c1.1-0.6,3.4-1.9,7.3-1.9
			c7.8,0,7.8,3.2,7.8,4.5v7.5h-6.3v-6.7c0-1.4,0-2.9-3.4-2.9c-1.7,0-3.4,0.5-4,1.3c-0.6,0.6-0.8,1.2-0.8,2.7v5.6h-6.3v-6.4
			c0-2,0.1-3.2-3.3-3.2c-1.7,0-3.4,0.5-4,1.1c-0.5,0.5-0.8,1.1-0.8,2.8v5.7h-6.3v-11.7L273.9,199.5L273.9,199.5z"/>
		<path class="st0" d="M312.6,205.6c0-1.7,0.6-2.6,2.1-3.3c1.1-0.5,2.5-0.7,3.4-0.7c2.2,0,5,0.8,5,3.7c0,1.3-0.6,3.8-5.3,3.8
			C314.9,209.1,312.6,208,312.6,205.6 M306.3,199.5v16.2h6.3v-5.8c0.9,0.5,3.1,1.6,7,1.6c5.3,0,10.1-1.9,10.1-6
			c0-4.2-4.8-6.3-10-6.3c-1.4,0-4.9,0.2-7.3,2h-0.1v-1.7H306.3z"/>
		<rect x="331.6" y="195" class="st0" width="6.3" height="16.2"/>
		<path class="st0" d="M346.3,204.4c0-1.5,1.8-2.7,4.8-2.7c1,0,4.6,0.2,4.7,2.7H346.3 M355.4,207.5c-0.3,0.5-1.1,1.6-4,1.6
			c-3.6,0-5.1-1.5-5.2-2.9H362c0.1-3.5-2.4-7-11.3-7c-7.6,0-11,3-11,6.2c0,1,0.4,2.1,1.4,3.3c2.5,2.7,8.1,2.8,10.1,2.8
			c7.9,0,9.9-2.8,10.4-3.5L355.4,207.5z"/>
		<g>
			<polygon class="st0" points="314.7,213.7 313.9,213.7 313.9,213.3 315.9,213.3 315.9,213.7 315.2,213.7 315.2,215.6 314.7,215.6 
							"/>
			<polygon class="st0" points="316.2,213.3 316.9,213.3 317.4,214.8 317.4,214.8 317.8,213.3 318.6,213.3 318.6,215.6 318.1,215.6 
				318.1,213.7 318.1,213.7 317.6,215.6 317.2,215.6 316.7,213.7 316.7,213.7 316.7,215.6 316.2,215.6 			"/>
		</g>
	</g>
</g>
</svg>
