<?xml version="1.0" encoding="utf-8"?>
<!-- Generator: Adobe Illustrator 19.1.0, SVG Export Plug-In . SVG Version: 6.00 Build 0)  -->
<!DOCTYPE svg PUBLIC "-//W3C//DTD SVG 1.1//EN" "http://www.w3.org/Graphics/SVG/1.1/DTD/svg11.dtd">
<svg version="1.1" id="Layer_1" xmlns="http://www.w3.org/2000/svg" xmlns:xlink="http://www.w3.org/1999/xlink" x="0px" y="0px"
	 viewBox="0 0 480 320" style="enable-background:new 0 0 480 320;" xml:space="preserve">
<style type="text/css">
	.st0{fill:#FFFFFF;}
</style>
<g>
	<path class="st0" d="M218.6,207.9c0-3.5,3-6,11.5-7.2v-0.8c0-2.2-1.1-3.2-3.3-3.2c-2.6,0-4.5,1.1-6.2,2.6l-1.5-1.8
		c2-1.8,4.6-3.2,8-3.2c4.1,0,5.7,2.2,5.7,5.7v7.6c0,2.1,0.1,3.4,0.5,4.2h-2.9c-0.2-0.7-0.4-1.4-0.4-2.4c-1.9,1.8-4.1,2.6-6.7,2.6
		C220.5,212.3,218.6,210.7,218.6,207.9 M230.1,207.5v-4.8c-6.6,1-8.7,2.6-8.7,4.8c0,1.7,1.1,2.5,2.9,2.5
		C226.6,210.1,228.5,209.1,230.1,207.5z M237.1,212v-17.2h2.8v2.6c1.5-1.5,3.7-2.9,6.5-2.9c3.3,0,5.1,1.9,5.1,5.2v12.4h-2.8v-11.8
		c0-2.3-1-3.4-3.2-3.4c-2.1,0-3.8,1.1-5.6,2.8v12.4h-2.8 M263.4,187.9h2.9V212h-2.9V187.9z M271.9,212v-24.1h8.6c5.3,0,8.3,2,8.3,6
		c0,3.3-2,5.1-4.5,5.6v0.1c3,0.6,5.3,2.3,5.3,5.9c0,4-3,6.6-8.3,6.6h-9.4 M274.7,198.4h5.5c3.6,0,5.7-1.3,5.7-4
		c0-2.8-1.7-3.9-5.6-3.9h-5.6V198.4z M274.7,209.5h6.3c3.9,0,5.7-1.5,5.7-4.3c0-3-2.4-4.3-6.3-4.3h-5.7V209.5z M293.7,212v-24.1h3.8
		l7.6,20.5h0.1l7.5-20.5h3.8V212h-2.8v-19.5h-0.1c-0.3,1.3-0.9,2.8-1.5,4.4l-5.8,15.1h-2.6l-5.8-15.1c-0.6-1.6-1-2.6-1.5-4.5h-0.1
		V212H293.7 M327.5,199.8c0-7.5,4.2-12.4,10.2-12.4c5.1,0,7.8,3,8.9,7.4l-2.7,0.7c-1-3.7-2.7-5.5-6.2-5.5c-4.5,0-7.3,3.8-7.3,9.8
		c0,6.4,2.9,10,7.4,10c3.4,0,5.5-1.9,6.6-5.8l2.7,0.6c-1.2,4.8-4.2,7.8-9.3,7.8C331.6,212.5,327.5,207.7,327.5,199.8 M349.3,203.4
		c0-5.9,3.8-9,8-9s8,3,8,9c0,5.9-3.8,9-8,9S349.3,209.3,349.3,203.4 M362.4,203.4c0-3.6-1.7-6.6-5.2-6.6c-3.3,0-5.2,2.7-5.2,6.6
		c0,3.7,1.7,6.6,5.2,6.6C360.5,210,362.4,207.3,362.4,203.4z M368.6,212v-17.2h2.8v2.6c1.6-1.6,3.6-3,6.2-3c2.9,0,4.1,1.2,4.7,3
		c1.7-1.6,3.8-3,6.4-3c3.5,0,5,2.1,5,5.2V212h-2.8v-11.8c0-2.3-0.7-3.4-3-3.4c-1.9,0-3.5,1.1-5.3,2.8V212h-2.8v-11.8
		c0-2.3-0.8-3.4-3-3.4c-1.9,0-3.5,1.1-5.3,2.8V212H368.6 M397.9,218.5v-23.7h2.8v2.4c1.3-1.4,3.1-2.7,5.7-2.7c3.9,0,7,2.9,7,8.9
		s-3.1,8.9-7.3,8.9c-2.1,0-3.9-0.9-5.4-2.5v8.7L397.9,218.5 M410.5,203.4c0-4.4-2.1-6.6-4.9-6.6c-2,0-3.6,1.1-5,2.6v7.9
		c1.5,1.7,3.2,2.6,5,2.6C408.6,210,410.5,208,410.5,203.4z M415.4,207.9c0-3.5,3-6,11.5-7.2v-0.8c0-2.2-1.1-3.2-3.3-3.2
		c-2.6,0-4.5,1.1-6.2,2.6l-1.5-1.8c2-1.8,4.6-3.2,8-3.2c4.1,0,5.7,2.2,5.7,5.7v7.6c0,2.1,0.1,3.4,0.5,4.2h-2.9
		c-0.2-0.7-0.4-1.4-0.4-2.4c-1.9,1.8-4.1,2.6-6.7,2.6C417.3,212.3,415.4,210.7,415.4,207.9 M426.9,207.5v-4.8
		c-6.6,1-8.7,2.6-8.7,4.8c0,1.7,1.1,2.5,2.9,2.5C423.3,210.1,425.3,209.1,426.9,207.5L426.9,207.5z M433.8,212v-17.2h2.8v2.6
		c1.5-1.5,3.7-2.9,6.5-2.9c3.3,0,5.1,1.9,5.1,5.2v12.4h-2.8v-11.8c0-2.3-1-3.4-3.2-3.4c-2.1,0-3.8,1.1-5.6,2.8v12.4h-2.8
		 M449.7,218.2l0.7-2.3c0.5,0.1,1.3,0.3,2.5,0.3c1.8,0,2.6-0.7,3.3-2.4l0.7-1.7l-6.7-17.3h3l5.1,13.9h0.1l5.1-13.9h2.8l-7.4,19.2
		c-1.2,3-2.5,4.7-5.9,4.7C451.4,218.6,450.5,218.4,449.7,218.2 M10,143.1v8.8h25.4c7.7,0,10.2,2,10.2,9.6v5.6
		c0,7.7-2.5,9.6-10.2,9.6H10.2c-7.7,0-10.2-2-10.2-9.6l0.1-2.8h8.3v4.8h28.8v-9.3H11.8c-7.7,0-10.1-2-10.1-9.6v-4.5
		c0-7.7,2.5-9.6,10.1-9.6H35c7.3,0,10.1,1.9,10.1,8.9v2.9h-8.4v-4.7H10 M65.2,136h30c7.7,0,10.1,2,10.1,9.6v21.5
		c0,7.7-2.4,9.6-10.1,9.6h-30c-7.7,0-10.1-2-10.1-9.6v-21.5C55.1,137.9,57.6,136,65.2,136 M64.6,169.1h31.3v-25.8H64.6V169.1z
		 M116.1,136h41.3v7.1h-31.8v10.7h17.1v7.5h-17.1v15.5h-9.5V136 M193.7,176.8h-9.5v-33.6h-18.7V136h47v7.2h-18.8V176.8 M218.9,136
		h9.5v33.1H259v7.7h-40.1V136 M288.1,136h9.2l23.4,40.8H310l-4.9-8.9h-25.8l-4.7,8.9h-9.5L288.1,136 M301.2,160.5l-8.8-16.6
		l-9.1,16.6H301.2z M330.7,158.5L309.5,136h12.7l13.9,15.6l14.1-15.6h11.2l-21.2,22.3v18.5h-9.5V158.5 M419.1,136H454
		c6.2,0,9.2,2.2,9.2,7.9v9.6c0,5.7-2.9,7.9-9.2,7.9h-5.4l18.8,15.4h-13.6l-16.4-15.5h-9v15.4h-9.3V136 M428.4,143v11.4h21.3
		c2.9,0,4.3-0.6,4.3-3.2v-4.9c0-2.7-1.3-3.2-4.3-3.2h-21.3V143z"/>
	<path class="st0" d="M367.9,136h41.8v7.5h-41.8V136z"/>
	<path class="st0" d="M367.9,152.6h41.8v7.5h-41.8V152.6z"/>
	<path class="st0" d="M367.9,169.2h41.8v7.5h-41.8V169.2z"/>
	<path class="st0" d="M474.5,136c3.1,0,5.5,2.5,5.5,5.6c0,3.2-2.4,5.6-5.5,5.6s-5.6-2.5-5.6-5.6C468.9,138.5,471.4,136,474.5,136
		 M474.5,136.8c-2.5,0-4.5,2.1-4.5,4.7c0,2.7,2,4.8,4.5,4.8s4.5-2.1,4.5-4.7C479,139,477,136.8,474.5,136.8z M473.4,144.9h-1v-6.3
		c0.5-0.1,1-0.2,1.8-0.2c0.9,0,1.6,0.2,2,0.5s0.6,0.7,0.6,1.3c0,0.8-0.6,1.3-1.2,1.5v0.1c0.6,0.1,0.9,0.6,1,1.5
		c0.2,1,0.3,1.4,0.4,1.5h-1c-0.1-0.2-0.3-0.8-0.4-1.6c-0.2-0.8-0.6-1.1-1.4-1.1h-0.7L473.4,144.9L473.4,144.9z M473.4,141.4h0.7
		c0.8,0,1.5-0.3,1.5-1.1c0-0.6-0.4-1.1-1.5-1.1h-0.7V141.4z"/>
</g>
</svg>
