<?xml version="1.0" encoding="utf-8"?>
<!-- Generator: Adobe Illustrator 19.1.0, SVG Export Plug-In . SVG Version: 6.00 Build 0)  -->
<!DOCTYPE svg PUBLIC "-//W3C//DTD SVG 1.1//EN" "http://www.w3.org/Graphics/SVG/1.1/DTD/svg11.dtd">
<svg version="1.1" id="Layer_1" xmlns="http://www.w3.org/2000/svg" xmlns:xlink="http://www.w3.org/1999/xlink" x="0px" y="0px"
	 viewBox="0 0 480 320" style="enable-background:new 0 0 480 320;" xml:space="preserve">
<style type="text/css">
	.st0{fill:#FFFFFF;}
</style>
<g>
	<path class="st0" d="M384.9,156.8C384.9,79.9,320,17.5,240,17.5S95.1,79.9,95.1,156.8c0,76.9,64.9,139.3,144.9,139.3
		S384.9,233.7,384.9,156.8 M400,156.6c0,84.9-71.6,153.7-160,153.7c-88.4,0-160-68.8-160-153.7C80,71.7,151.6,2.9,240,2.9
		C328.4,2.9,400,71.7,400,156.6"/>
	<path class="st0" d="M345.3,158.4c0,56.5-47.1,102.4-105.1,102.4c-58,0-105.1-45.8-105.1-102.4c0-56.5,47.1-102.4,105.1-102.4
		C298.2,56,345.3,101.9,345.3,158.4 M240,71c-50.6,0-91.6,39.3-91.6,87.7c0,48.5,41,87.7,91.6,87.7s91.6-39.3,91.6-87.7
		C331.6,110.3,290.6,71,240,71"/>
	<path class="st0" d="M136.4,238.2c-0.1-3.1,1-5.5,3.1-7.3c2.1-1.8,4.6-2.5,7.5-2.3c2.9,0.2,5.2,1.3,7.2,3.3c1,1,1.8,2.1,2.3,3.3
		c-0.6,0.2-1.1,0.5-1.7,0.7c-0.5-1-1.1-2-1.9-2.8c-1.7-1.7-3.6-2.6-6-2.7c-2.4-0.2-4.4,0.4-6.1,1.9c-1.7,1.5-2.6,3.5-2.5,6
		c0.1,2.5,1.1,4.7,3,6.6c0.8,0.8,1.6,1.4,2.5,1.9c1.6-1.7,3.2-3.4,4.8-5.1c-1.1-1-2.2-2.1-3.3-3.2c0.4-0.4,0.9-0.9,1.3-1.3
		c1.5,1.5,3.1,3,4.7,4.5c-2.3,2.5-4.5,4.9-6.8,7.4c-0.2-0.1-0.4-0.2-0.6-0.3c-1.4-0.6-2.8-1.5-3.9-2.6
		C137.7,244,136.4,241.3,136.4,238.2"/>
	<path class="st0" d="M157.4,260.8c-0.6-0.5-1.3-0.9-1.9-1.4c0.3-3.5,0.8-6.9,1.3-10.3c-1.3-1.1-2.7-2.2-4-3.3
		c-2,2.3-3.9,4.5-5.9,6.8c-0.5-0.5-1.1-0.9-1.6-1.4l13.2-14.8c1.8,1.6,3.6,3.1,5.5,4.6c1.2,0.9,1.9,2.1,2.1,3.6
		c0.2,1.5-0.1,2.8-1,4.1c-0.7,1-1.7,1.7-2.9,2c-1.2,0.3-2.4,0.2-3.6-0.3C158.1,253.8,157.7,257.3,157.4,260.8 M158.5,248.1
		c0.8,0.7,1.8,0.9,2.8,0.8c1-0.1,1.8-0.6,2.4-1.4c0.6-0.8,0.8-1.7,0.7-2.7c-0.1-1-0.6-1.8-1.4-2.4c-1.4-1.1-2.8-2.3-4.1-3.4
		c-1.6,1.8-3.2,3.6-4.7,5.5C155.5,245.7,157,246.9,158.5,248.1"/>
	<path class="st0" d="M181.4,252.5l-9.5,17.4c-0.6-0.3-1.2-0.7-1.8-1c0.8-1.4,1.6-2.9,2.4-4.3c-2.5-1.4-5-2.9-7.4-4.5
		c-1.9,0.8-3.8,1.5-5.7,2.2c-0.7-0.5-1.4-0.9-2-1.4c7.7-2.6,15-5.8,21.9-9.5C180,251.7,180.7,252.1,181.4,252.5 M167.2,259.3
		c2,1.3,4.1,2.6,6.2,3.7c1.7-3.1,3.5-6.2,5.2-9.3C175,255.7,171.2,257.6,167.2,259.3"/>
	<path class="st0" d="M195.5,259c-2.4,6.2-4.8,12.3-7.2,18.5c-0.7-0.3-1.4-0.5-2-0.8c-1.3-6.5-2.2-13-2.7-19.4
		c-2.5,4.9-5,9.9-7.4,14.8c-0.6-0.3-1.2-0.6-1.8-0.9l9.2-17.6c0.6,0.3,1.1,0.6,1.7,0.9c0.4,6.4,1.2,12.8,2.4,19.2
		c2.1-5.1,4.2-10.2,6.2-15.3C194.4,258.6,195,258.8,195.5,259"/>
	<path class="st0" d="M190.8,278.5c2.3-6.2,4.6-12.4,6.9-18.6c1.5,0.5,2.9,1,4.4,1.5c2.5,0.8,4.3,2.3,5.7,4.7
		c1.3,2.3,1.7,4.8,1.1,7.5c-0.6,2.7-2.2,4.7-4.7,6c-2.5,1.3-5.3,1.6-8.2,0.6C194.2,279.7,192.5,279.1,190.8,278.5 M193.3,277.5
		c1.1,0.4,2.1,0.7,3.2,1.1c2.3,0.8,4.6,0.6,6.6-0.5c2.1-1.1,3.3-2.7,3.9-4.9c0.6-2.2,0.2-4.2-0.8-6.2c-1.1-1.9-2.6-3.2-4.7-3.9
		c-0.9-0.3-1.9-0.6-2.8-1L193.3,277.5z"/>
	<path class="st0" d="M215.2,285.1c1.2-6.5,2.3-13,3.5-19.5c1.9,0.3,3.7,0.6,5.6,0.8c1.4,0.2,2.5,0.8,3.4,2c0.9,1.2,1.3,2.5,1.2,3.9
		c-0.1,1.6-0.9,3-2.3,3.9c0.9,0.5,1.6,1.3,2.1,2.2c0.5,0.9,0.7,1.9,0.7,3c-0.1,1.5-0.8,2.7-2,3.7c-1.3,1-2.7,1.4-4.4,1.2
		C220.4,285.9,217.8,285.5,215.2,285.1 M219,274.7c1.4,0.2,2.8,0.4,4.2,0.6c1,0.1,1.9-0.1,2.7-0.7c0.8-0.6,1.2-1.4,1.3-2.4
		c0.1-1-0.2-1.8-0.8-2.6c-0.6-0.8-1.4-1.2-2.3-1.3c-1.3-0.2-2.6-0.4-4-0.6C219.7,270,219.3,272.3,219,274.7 M217.5,283.6
		c1.9,0.3,3.8,0.6,5.7,0.8c1.1,0.1,2-0.1,2.9-0.8c0.8-0.6,1.3-1.5,1.4-2.5c0.1-1-0.2-1.9-0.9-2.6c-0.7-0.8-1.5-1.2-2.5-1.3
		c-1.8-0.2-3.6-0.5-5.4-0.8C218.3,278.8,217.9,281.2,217.5,283.6"/>
	<path class="st0" d="M245.2,267.3c0.3,6.6,0.6,13.2,0.8,19.8c-0.7,0-1.3,0.1-2,0.1c0-1.7-0.1-3.3-0.1-5c-2.8,0.1-5.6,0.1-8.4,0
		c-1.2,1.6-2.4,3.2-3.6,4.8c-0.8,0-1.6-0.1-2.4-0.2c5.1-6.3,9.5-12.8,13.3-19.5C243.6,267.3,244.4,267.3,245.2,267.3 M236.8,280.4
		c2.3,0.1,4.7,0.1,7,0c-0.1-3.5-0.2-7.1-0.3-10.6C241.4,273.4,239.2,276.9,236.8,280.4"/>
	<path class="st0" d="M249.2,267l1.4,18c3.3-0.2,6.7-0.6,10-1.1c0.1,0.6,0.2,1.2,0.3,1.8c-4,0.6-8,1-12.1,1.2
		c-0.4-6.6-0.8-13.2-1.2-19.8C248,267.1,248.6,267.1,249.2,267"/>
	<path class="st0" d="M261.1,265.6c1,5.9,2.1,11.8,3.1,17.7c3.3-0.6,6.6-1.3,9.8-2.1c0.1,0.6,0.3,1.2,0.4,1.8c-4,1-7.9,1.8-11.9,2.4
		c-1.1-6.5-2.1-13.1-3.2-19.6C260,265.7,260.6,265.7,261.1,265.6"/>
	<path class="st0" d="M290.4,278c-0.7,0.3-1.4,0.5-2.1,0.8c-2.6-2.2-5.2-4.5-7.6-6.9c-1.6,0.5-3.1,1-4.7,1.4
		c0.8,2.9,1.6,5.7,2.4,8.6c-0.6,0.2-1.3,0.4-2,0.5c-1.7-6.4-3.4-12.8-5.1-19.2c2.2-0.6,4.4-1.2,6.5-1.9c1.4-0.4,2.7-0.3,4,0.3
		c1.3,0.6,2.3,1.7,2.8,3.1c0.4,1.2,0.5,2.3,0.1,3.5c-0.4,1.2-1.1,2.1-2.2,2.8C285,273.5,287.7,275.8,290.4,278 M280.6,270
		c1-0.3,1.7-0.9,2.1-1.8c0.4-0.9,0.5-1.8,0.2-2.8c-0.3-0.9-1-1.6-1.8-2.1c-0.9-0.4-1.8-0.5-2.7-0.2c-1.6,0.5-3.3,1-4.9,1.5
		c0.6,2.3,1.3,4.6,1.9,7C277.1,271.1,278.9,270.6,280.6,270"/>
	<path class="st0" d="M292.8,274.1c-2.8-1-4.6-2.9-5.6-5.5c-1-2.6-0.9-5.2,0.2-7.8c1.1-2.6,2.7-4.4,5.2-5.5c2.4-1.2,4.9-1.3,7.6-0.6
		c2.7,0.8,4.7,2.3,6.1,4.8c1.4,2.4,1.7,5,0.7,7.8c-1,2.8-2.9,4.9-5.8,6.3C298.4,275,295.5,275.2,292.8,274.1 M289,261.6
		c-0.9,2.1-0.9,4.2-0.1,6.4c0.8,2.1,2.4,3.6,4.6,4.4c2.2,0.8,4.6,0.7,6.9-0.4c2.3-1.1,3.9-2.8,4.7-5.1c0.8-2.3,0.6-4.4-0.5-6.4
		c-1.1-2-2.8-3.3-5-3.9c-2.2-0.7-4.3-0.5-6.3,0.4C291.3,258,289.9,259.5,289,261.6"/>
	<path class="st0" d="M313.3,263.7c-2.9-0.5-5-2.1-6.4-4.5c-1.4-2.4-1.7-5-1.1-7.7c0.6-2.7,2-4.8,4.3-6.4c2.2-1.6,4.7-2.2,7.5-1.9
		c2.8,0.3,5.1,1.5,6.9,3.6c1.8,2.1,2.5,4.7,2,7.6c-0.5,2.9-2.1,5.4-4.8,7.3C319.1,263.6,316.2,264.2,313.3,263.7 M307.6,251.9
		c-0.5,2.2-0.2,4.4,0.9,6.3c1.2,2,2.9,3.2,5.3,3.6c2.4,0.4,4.7-0.1,6.8-1.6c2.1-1.5,3.4-3.5,3.9-5.9c0.4-2.4-0.1-4.5-1.5-6.3
		c-1.4-1.8-3.3-2.8-5.6-3c-2.3-0.3-4.3,0.3-6.2,1.6C309.3,248,308.1,249.7,307.6,251.9"/>
	<path class="st0" d="M333,224.5c5,4.3,10,8.6,15.1,12.9c-0.5,0.6-0.9,1.1-1.4,1.6c-3.9-3.4-7.7-6.8-11.6-10.2
		c2.3,5.2,4.3,10.5,6.2,16c-0.6,0.6-1.1,1.1-1.7,1.7c-5.5-1.8-10.8-3.9-15.9-6.3c3.4,3.9,6.8,7.7,10.2,11.6
		c-0.5,0.5-1.1,0.9-1.6,1.4c-4.3-5-8.6-10.1-12.9-15.1c0.5-0.4,1-0.8,1.4-1.3c5.8,2.7,11.8,5.1,18,7.2c-2.1-6.2-4.4-12.3-7.1-18.1
		C332.1,225.5,332.6,225,333,224.5"/>
	<g>
		<path class="st0" d="M216.6,136.6V185h-7.7v-30.8L194.8,185h-8.7l-13.8-30.6V185h-7.7v-48.4h8l17.8,39.5l18-39.5H216.6z"/>
		<path class="st0" d="M248.7,178.1c3.1,0,5.9-0.7,8.6-2.1v8c-2.8,0.9-5.6,1.4-8.6,1.4c-7.1,0-13.2-2.4-18.3-7.2
			c-5-4.8-7.6-10.7-7.6-17.5c0-6.8,2.5-12.6,7.6-17.5c5-4.8,11.1-7.2,18.3-7.2c2.9,0,5.8,0.5,8.6,1.4v8.1c-2.7-1.4-5.5-2.1-8.6-2.1
			c-5,0-9.3,1.7-12.8,5.1c-3.5,3.4-5.3,7.5-5.3,12.3c0,4.8,1.8,8.9,5.3,12.3C239.4,176.4,243.7,178.1,248.7,178.1z"/>
	</g>
	<g>
		<path class="st0" d="M251.4,151.3v2.9h-7v5.2h5.4v2.9h-5.4v5.3h7v2.9h-9.9v-19.3H251.4z"/>
		<path class="st0" d="M256.6,151.3v14.6l8.7-14.6h3.4l-11.4,19.3h-3.6v-19.3H256.6z"/>
		<path class="st0" d="M280.4,151.3v2.9h-7v5.2h5.4v2.9h-5.4v5.3h7v2.9h-9.9v-19.3H280.4z"/>
		<path class="st0" d="M296.9,151.3v19.3h-3.1l-8.3-13.8v13.8h-2.9v-19.3h3.1L294,165v-13.8H296.9z"/>
		<path class="st0" d="M310.5,151.3v2.9h-4.1v16.3h-3v-16.3h-4.1v-2.9H310.5z"/>
		<path class="st0" d="M318.3,170.7c-1.3-0.1-2.5-0.4-3.6-1c-1.2-0.7-2.1-1.7-2.5-2.9l2.8-1c0.2,0.6,0.7,1.1,1.4,1.4
			c0.6,0.3,1.3,0.5,2,0.5c1.1,0,2.1-0.2,2.8-0.8c0.6-0.5,1-1.1,1-1.7c0.1-1.2-1.2-2.2-3.9-2.9c-4.2-1.2-6.2-3.1-6-5.9
			c0.1-1.9,0.9-3.4,2.5-4.3c1.2-0.7,2.7-1.1,4.4-1c2.1,0.1,3.7,0.8,5,2.1l-2.2,2c-0.7-0.8-1.7-1.2-2.9-1.2c-0.9,0-1.6,0.1-2.3,0.3
			c-1,0.4-1.5,1.1-1.5,2.2c-0.1,1.2,1.2,2.2,3.9,2.9c2.4,0.7,4.1,1.6,5.1,2.9c0.7,0.9,1,1.9,1,3c-0.1,1.5-0.8,2.8-2.1,3.9
			c-1.2,1-2.7,1.5-4.4,1.5C318.6,170.7,318.4,170.7,318.3,170.7z"/>
	</g>
	<path class="st0" d="M119.7,101.4c4.7,2.7,9.4,5.3,14.2,8c-0.3,0.6-0.6,1.1-0.9,1.7c-2.2-1.2-4.3-2.4-6.5-3.5
		c-1.8,3.3-3.5,6.8-5,10.4c2.3,1,4.5,2,6.8,2.9c-0.3,0.6-0.5,1.2-0.8,1.9c-5-2.1-10-4.1-15-6.2c0.3-0.7,0.6-1.4,0.9-2.1
		c2.3,1,4.5,2,6.8,2.9c1.6-3.6,3.3-7.1,5.1-10.5c-2.2-1.2-4.3-2.3-6.5-3.5C119,102.7,119.4,102,119.7,101.4"/>
	<path class="st0" d="M129.9,85.6c4.3,3.3,8.6,6.6,13,9.8c-0.4,0.5-0.7,1-1.1,1.5c-1.1-0.8-2.2-1.6-3.3-2.4c-1.6,2.2-3.2,4.6-4.7,7
		c0.5,1.7,1.1,3.3,1.7,5c-0.4,0.6-0.8,1.3-1.1,2c-2.5-6.6-4.6-13.4-6.2-20.6C128.8,87.1,129.4,86.3,129.9,85.6 M133.2,99.6
		c1.3-2.1,2.7-4.1,4.1-6c-2.3-1.7-4.7-3.4-7-5.2C131.1,92.2,132.1,95.9,133.2,99.6"/>
	<path class="st0" d="M146,67.6c3.7,4,7.4,8,11.1,11.9c-0.4,0.4-0.9,0.8-1.3,1.2c-2.9-3.1-5.8-6.1-8.7-9.2c1.2,4.7,2.6,9.4,4.1,13.9
		c-0.4,0.5-0.9,1-1.3,1.5c-4.6-1.2-9.3-2.2-14.1-2.9c3.3,2.7,6.5,5.3,9.8,8c-0.4,0.5-0.8,1-1.1,1.4c-4.3-3.4-8.5-6.7-12.8-10.1
		c0.4-0.6,0.9-1.1,1.4-1.7c5.5,0.8,10.9,1.9,16.2,3.3c-1.8-5.1-3.4-10.4-4.7-15.9C145,68.5,145.5,68,146,67.6"/>
	<path class="st0" d="M164.4,53.2c3,4.5,5.9,9.1,8.9,13.6c-0.5,0.3-1,0.6-1.4,1c-2.4-3.5-4.7-7-7.1-10.5c0.4,4.8,1,9.6,1.9,14.2
		c-0.5,0.4-1,0.8-1.5,1.2c-4.3-2-8.7-3.9-13.3-5.5c2.8,3.2,5.5,6.4,8.3,9.6c-0.4,0.4-0.9,0.8-1.3,1.2c-3.6-4.1-7.2-8.1-10.8-12.2
		c0.5-0.5,1.1-0.9,1.6-1.4c5.2,1.8,10.3,3.9,15.2,6.2c-1-5.3-1.6-10.7-2.1-16.3C163.2,54,163.8,53.6,164.4,53.2"/>
	<path class="st0" d="M176,46.4c0.2,0.4,0.5,0.9,0.7,1.3c-2.6,1.3-5.2,2.8-7.7,4.3c1,1.7,2,3.3,3.1,5c1.9-1.2,3.9-2.3,5.8-3.3
		c0.2,0.4,0.5,0.9,0.7,1.3c-1.9,1-3.9,2.1-5.8,3.3c1,1.7,2.1,3.4,3.1,5.1c2.3-1.4,4.6-2.7,7-3.9c0.2,0.4,0.5,0.9,0.7,1.3
		c-2.8,1.5-5.6,3.1-8.4,4.8c-2.9-4.6-5.8-9.2-8.7-13.8C169.6,49.9,172.8,48.1,176,46.4"/>
	<path class="st0" d="M196.4,55.1c-0.6,0.2-1.2,0.5-1.8,0.7c-2.3-1.7-4.6-3.4-7-5c-1.5,0.6-2.9,1.3-4.3,2c1.1,2.2,2.2,4.4,3.2,6.6
		c-0.5,0.3-1,0.5-1.5,0.8c-2.5-4.8-4.9-9.7-7.4-14.5c2.3-1.1,4.6-2.2,6.9-3.2c1.5-0.6,2.9-0.7,4.3-0.4c1.4,0.4,2.3,1.2,2.7,2.3
		c0.4,1,0.3,1.9-0.1,3c-0.4,1-1.1,1.8-2.1,2.5C191.7,51.6,194.1,53.3,196.4,55.1 M187.5,49.2c0.9-0.4,1.6-1,2-1.8
		c0.4-0.8,0.5-1.6,0.2-2.3c-0.3-0.8-0.9-1.3-1.8-1.5c-0.9-0.3-1.9-0.2-2.8,0.2c-1.7,0.7-3.4,1.5-5.1,2.3c0.9,1.8,1.7,3.5,2.6,5.3
		C184.2,50.7,185.8,49.9,187.5,49.2"/>
	<path class="st0" d="M202,53.3c-1.2,0.3-2.3,0.4-3.4,0.3c-1.3-0.2-2.3-0.6-3-1.4c0.5-0.4,0.9-0.7,1.4-1c0.5,0.5,1.2,0.8,2.2,0.9
		c0.8,0.1,1.7,0,2.5-0.2c1.3-0.4,2.3-1,3-1.8c0.6-0.8,0.8-1.5,0.7-2.2c-0.3-1.4-2.1-2-5.4-1.8c-2.4,0.2-4.2,0.1-5.5-0.5
		c-1-0.4-1.6-1.1-1.9-1.9c-0.5-1.5-0.1-2.9,1.2-4.1c1-1,2.4-1.8,4.2-2.2c2.1-0.6,4-0.5,5.5,0.2c-0.4,0.5-0.7,0.9-1.1,1.4
		c-1.1-0.5-2.5-0.5-4.1-0.1c-1.4,0.4-2.4,0.9-3.1,1.7c-0.8,0.8-1,1.7-0.7,2.7c0.4,1.3,2.3,1.8,5.6,1.5c2.4-0.2,4.2,0.1,5.5,0.7
		c0.9,0.5,1.5,1.2,1.7,2.1c0.3,1.2-0.1,2.3-1,3.5c-0.9,1.1-2.1,1.9-3.6,2.3C202.2,53.3,202.1,53.3,202,53.3"/>
	<path class="st0" d="M217.2,32.8c0.1,0.5,0.2,1,0.3,1.5c-1.8,0.3-3.6,0.6-5.4,1c1,4.8,2,9.6,3.1,14.4c-0.6,0.1-1.1,0.2-1.7,0.4
		c-1.1-4.8-2.2-9.6-3.3-14.4c-1.8,0.4-3.6,0.8-5.3,1.3c-0.1-0.5-0.3-1-0.4-1.4C208.7,34.4,212.9,33.5,217.2,32.8"/>
	<path class="st0" d="M229.5,31.3c0,0.5,0.1,1,0.1,1.5c-2.9,0.2-5.8,0.5-8.6,0.9c0.3,1.9,0.6,3.9,0.8,5.8c2.2-0.3,4.4-0.6,6.5-0.7
		c0,0.5,0.1,1,0.1,1.5c-2.2,0.2-4.3,0.4-6.5,0.7c0.3,1.9,0.6,3.9,0.8,5.8c2.6-0.4,5.2-0.6,7.8-0.8c0,0.5,0.1,1,0.1,1.5
		c-3.1,0.2-6.3,0.6-9.4,1.1c-0.8-5.4-1.7-10.7-2.5-16.1C222.4,32,226,31.6,229.5,31.3"/>
	<path class="st0" d="M230.5,31.2c0.6,0,1.3-0.1,1.9-0.1l1,16.3c-0.6,0-1.1,0.1-1.7,0.1C231.3,42,230.9,36.6,230.5,31.2"/>
	<path class="st0" d="M248.9,31.1c-0.3,5.4-0.7,10.8-1,16.2c-0.6,0-1.2-0.1-1.8-0.1c-2.9-4.6-6.1-9.2-9.6-13.6
		c0.1,4.5,0.3,9,0.4,13.5c-0.6,0-1.1,0-1.7,0.1c-0.2-5.4-0.5-10.8-0.7-16.2c0.7,0,1.4-0.1,2.1-0.1c3.6,4.4,6.9,9,9.8,13.6
		c0.2-4.5,0.4-9,0.6-13.5C247.6,31.1,248.3,31.1,248.9,31.1"/>
	<path class="st0" d="M256.2,48.1c0.7-5.4,1.4-10.7,2.1-16.1c2.1,0.3,4.2,0.6,6.3,0.9c1.5,0.3,2.8,0.9,3.7,2c0.9,1.1,1.2,2.2,1,3.4
		c-0.3,1.3-1.2,2.3-2.6,2.9c0.8,0.5,1.5,1.2,1.9,2c0.4,0.8,0.5,1.7,0.3,2.5c-0.3,1.2-1,2.1-2.2,2.8c-1.2,0.7-2.4,0.8-3.8,0.6
		C260.6,48.7,258.4,48.4,256.2,48.1 M259.1,39.5c1.4,0.2,2.7,0.4,4.1,0.6c1,0.2,1.8,0,2.7-0.4c0.8-0.4,1.3-1,1.5-1.8
		c0.2-0.8-0.1-1.5-0.7-2.2c-0.6-0.7-1.4-1.1-2.4-1.3c-1.4-0.2-2.9-0.5-4.3-0.7C259.7,35.7,259.4,37.6,259.1,39.5 M258.1,46.9
		c1.7,0.2,3.3,0.5,5,0.8c0.9,0.2,1.8,0,2.6-0.4c0.8-0.4,1.3-1.1,1.4-1.9c0.2-0.8,0-1.5-0.6-2.2c-0.6-0.7-1.3-1.1-2.3-1.3
		c-1.7-0.3-3.5-0.6-5.2-0.8C258.6,43,258.4,44.9,258.1,46.9"/>
	<path class="st0" d="M287.2,38.7c-1.8,5.1-3.6,10.2-5.5,15.3c-0.5-0.2-1.1-0.4-1.6-0.5l1.3-3.9c-2.4-0.8-4.9-1.5-7.3-2.2
		c-1.3,1-2.6,2.1-3.9,3.2c-0.7-0.2-1.3-0.3-2-0.5c5-4.4,10.6-8.5,16.5-12.3C285.5,38.2,286.4,38.5,287.2,38.7 M275.6,46.3
		c2.1,0.6,4.2,1.2,6.3,1.9c0.9-2.8,1.9-5.5,2.8-8.2C281.5,42,278.5,44.1,275.6,46.3"/>
	<path class="st0" d="M291.5,40.3L286,54.1c2.7,1.1,5.4,2.2,8.1,3.5c-0.2,0.4-0.4,0.9-0.6,1.3c-3.2-1.5-6.4-2.8-9.6-4
		c1.9-5.1,3.8-10.2,5.8-15.2C290.2,39.9,290.9,40.1,291.5,40.3"/>
	<path class="st0" d="M303.9,45.8c-2.2,4.4-4.5,8.8-6.7,13.2c2.6,1.3,5.2,2.8,7.8,4.3c-0.3,0.4-0.5,0.9-0.8,1.3
		c-3-1.8-6.1-3.5-9.2-5c2.4-4.9,4.8-9.7,7.2-14.6C302.7,45.2,303.3,45.5,303.9,45.8"/>
	<path class="st0" d="M315.9,72.7c-0.5-0.4-1-0.8-1.6-1.2c0.3-2.9,0.5-5.8,0.6-8.7c-1.3-0.9-2.7-1.8-4-2.7c-1.3,2.1-2.7,4.1-4,6.2
		c-0.5-0.3-1-0.6-1.5-0.9c2.9-4.6,5.7-9.2,8.6-13.8c2.2,1.4,4.3,2.8,6.5,4.3c1.3,0.9,2.2,2.1,2.6,3.5c0.4,1.4,0.2,2.6-0.6,3.5
		c-0.6,0.8-1.5,1.3-2.6,1.5c-1.1,0.2-2.2,0-3.3-0.5C316.5,66.8,316.3,69.7,315.9,72.7 M316.3,61.9c0.8,0.6,1.7,0.9,2.6,0.8
		c0.9,0,1.6-0.4,2.1-1c0.5-0.7,0.6-1.4,0.4-2.4c-0.3-0.9-0.8-1.7-1.7-2.3c-1.6-1.1-3.1-2.1-4.7-3.2c-1.1,1.7-2.1,3.3-3.2,5
		C313.3,59.8,314.8,60.8,316.3,61.9"/>
	<path class="st0" d="M319.9,72.9c-0.5-2.5-0.1-4.6,1.3-6.5c1.4-1.8,3.4-2.7,6.1-2.6c2.7,0.1,5.2,1.2,7.5,3.3
		c2.3,2.1,3.6,4.6,3.9,7.3c0.3,2.7-0.4,4.8-2.1,6.4c-1.7,1.6-3.8,2.1-6.3,1.8c-2.5-0.3-4.8-1.4-6.8-3.2
		C321.6,77.5,320.3,75.4,319.9,72.9 M327.7,65.5c-2.2-0.1-3.9,0.6-5,2.1c-1.2,1.5-1.5,3.2-1.2,5.3c0.4,2.1,1.4,3.8,3,5.4
		c1.7,1.5,3.5,2.4,5.6,2.7c2.1,0.2,3.8-0.2,5.2-1.5c1.4-1.3,1.9-3,1.6-5.2c-0.3-2.2-1.4-4.2-3.2-5.9C332,66.5,329.9,65.6,327.7,65.5
		"/>
	<path class="st0" d="M334.8,87.5c-0.1-2.6,0.6-4.7,2.3-6.2c1.7-1.5,3.9-2.1,6.5-1.5c2.6,0.6,5,2.2,7,4.8c1.9,2.6,2.9,5.3,2.8,8.1
		c-0.1,2.8-1.2,4.8-3.1,6c-1.9,1.2-4.1,1.4-6.6,0.6c-2.5-0.8-4.5-2.3-6.2-4.6C335.8,92.5,334.9,90.1,334.8,87.5 M343.8,81.6
		c-2.2-0.5-3.9-0.1-5.3,1.1c-1.4,1.2-2,2.9-2,5.1c0.1,2.1,0.8,4.1,2.2,6c1.4,1.9,3.1,3.1,5.2,3.8c2.1,0.7,3.9,0.5,5.4-0.5
		c1.6-1,2.4-2.7,2.5-5c0.1-2.3-0.7-4.5-2.3-6.6C347.9,83.4,345.9,82.1,343.8,81.6"/>
	<path class="st0" d="M368.6,116.5c-5,2.1-10,4.1-15,6.2c-0.3-0.6-0.5-1.2-0.8-1.8c3.9-1.7,7.7-3.3,11.6-5
		c-4.9-0.8-9.8-1.3-14.7-1.6c-0.3-0.6-0.6-1.3-1-1.9c2.6-4.1,5.1-8.3,7.4-12.7c-3.6,2.2-7.2,4.4-10.8,6.5c-0.3-0.5-0.7-1.1-1-1.6
		c4.6-2.9,9.2-5.7,13.8-8.6c0.4,0.6,0.8,1.3,1.2,1.9c-2.6,5.1-5.4,9.9-8.4,14.6c5.5,0.3,11.1,0.9,16.7,1.8
		C368,115,368.3,115.8,368.6,116.5"/>
</g>
</svg>
