<?xml version="1.0" encoding="utf-8"?>
<!-- Generator: Adobe Illustrator 19.1.0, SVG Export Plug-In . SVG Version: 6.00 Build 0)  -->
<!DOCTYPE svg PUBLIC "-//W3C//DTD SVG 1.1//EN" "http://www.w3.org/Graphics/SVG/1.1/DTD/svg11.dtd">
<svg version="1.1" id="Layer_1" xmlns="http://www.w3.org/2000/svg" xmlns:xlink="http://www.w3.org/1999/xlink" x="0px" y="0px"
	 viewBox="0 0 480 320" style="enable-background:new 0 0 480 320;" xml:space="preserve">
<style type="text/css">
	.st0{fill:#FFFFFF;}
</style>
<g>
	<path class="st0" d="M0,107.4v105.2h105.2V107.4H0z M49.5,132.8c-1.7-5.3-3.5-7-12.8-7h-7.2c-2.2,0-2.7,0.5-2.7,2.4v15h3.5
		c7.4,0,9-1.3,9.9-6.3h1.8v16.8h-1.8c-1-5.6-3.8-7-9.9-7h-3.5v15.5c0,5,1.3,5.5,7,5.7v1.8H11.4V168c4.7-0.2,6-0.8,6-5.7v-32.4
		c0-5-1.3-5.5-5.9-5.7v-1.8h39.7l0.3,10.5H49.5z M94.7,132.8c-1.5-5.1-3.8-7-8.8-7h-5.9v36.5c0,5,1.3,5.5,6.7,5.7v1.8H63.9V168
		c5.4-0.2,6.7-0.8,6.7-5.7v-36.5h-5.9c-5,0-7.3,1.9-8.8,7h-2.4l1-10.5h41.6l1,10.5H94.7z"/>
	<path class="st0" d="M149.8,141.6c0,4.1,1.1,4.6,5.8,4.8v1.5h-18.7v-1.5c3.9-0.2,5-0.6,5-4.8v-27c0-4.1-1.1-4.6-4.9-4.8v-1.5h33
		l0.2,8.7h-1.6c-1.4-4.4-2.9-5.8-10.6-5.8h-6c-1.8,0-2.2,0.4-2.2,2v12.5h6.7c6.2,0,7.5-1.1,8.3-5.2h1.5v14h-1.5
		c-0.8-4.6-3.1-5.8-8.3-5.8h-6.7L149.8,141.6L149.8,141.6z"/>
	<path class="st0" d="M188.7,141.6c0,4.1,1.1,4.6,5.8,4.8v1.5H175v-1.5c4.7-0.2,5.8-0.6,5.8-4.8v-27c0-4.1-1.1-4.6-5.8-4.8v-1.5
		h19.5v1.5c-4.7,0.2-5.8,0.6-5.8,4.8L188.7,141.6L188.7,141.6z"/>
	<path class="st0" d="M235.3,115.7c0-3.8-1-5.4-5.4-5.9v-1.5h14v1.5c-4.3,0.5-5.3,2-5.3,5.9v33.1h-2l-27-31.2v22.9
		c0,3.8,1,5.4,5.3,5.9v1.5h-14v-1.5c4.3-0.5,5.4-2,5.4-5.9v-26.6c-1.3-2.3-2.9-3.4-5.4-4v-1.5h10.8l23.6,27.2V115.7z"/>
	<path class="st0" d="M256.4,133.7l5.9-15.6l5.9,15.6H256.4z M284.7,147.9v-1.5c-3,0.1-3.7-1.2-5.2-4.9l-13.9-34h-1.9l-14.5,35.2
		c-1,2.4-2.3,3.2-4.8,3.7v1.5h12.6v-1.5c-2.7,0-4.1-0.6-4.1-2.5c0-1.6,1.8-6,2.3-7.3h14.3c0.5,1.3,2.4,5.6,2.4,7.3
		c0,1.9-1.5,2.5-4.2,2.5v1.5H284.7z"/>
	<path class="st0" d="M323,115.7c0-3.8-1-5.4-5.3-5.9v-1.5h14v1.5c-4.3,0.5-5.4,2-5.4,5.9v33.1h-2l-27-31.2v22.9
		c0,3.8,1,5.4,5.4,5.9v1.5h-14v-1.5c4.3-0.5,5.4-2,5.4-5.9v-26.6c-1.3-2.3-2.9-3.4-5.4-4v-1.5h10.8l23.6,27.2V115.7z"/>
	<path class="st0" d="M373,138.6c-4.1,7-9.5,10.2-17.7,10.2c-12.8,0-20.5-8.4-20.5-21.1c0-9,7.1-20.4,20.9-20.4
		c4.1,0,10,2.3,10.9,2.3c1.2,0,1.5-0.6,2.4-2.3h2l0.8,13.2H370c-2.3-6.1-6.5-10.5-13.4-10.5c-9.3,0-13.4,10.1-13.4,17.7
		c0,10.6,4.6,17.8,14.4,17.8c7.7,0,11.9-5.7,13.7-8.2L373,138.6z"/>
	<path class="st0" d="M392.1,141.6c0,4.1,1.1,4.6,5.8,4.8v1.5h-19.5v-1.5c4.7-0.2,5.8-0.6,5.8-4.8v-27c0-4.1-1.1-4.6-5.8-4.8v-1.5
		h19.5v1.5c-4.7,0.2-5.8,0.6-5.8,4.8V141.6z"/>
	<path class="st0" d="M414.1,133.7l5.9-15.6l5.9,15.6H414.1z M442.5,147.9v-1.5c-3,0.1-3.7-1.2-5.2-4.9l-13.9-34h-1.9l-14.5,35.2
		c-1,2.4-2.3,3.2-4.8,3.7v1.5h12.6v-1.5c-2.7,0-4.1-0.6-4.1-2.5c0-1.6,1.8-6,2.3-7.3h14.3c0.5,1.3,2.4,5.6,2.4,7.3
		c0,1.9-1.5,2.5-4.2,2.5v1.5H442.5z"/>
	<path class="st0" d="M445.9,147.9v-1.5c3.8-0.2,4.9-0.6,4.9-4.8v-27c0-4.1-1.1-4.6-4.9-4.8v-1.5h18.3v1.5c-4.4,0.2-5.5,0.6-5.5,4.8
		v27.7c0,2.4,0.7,3.2,5.1,3.2c7.1,0,11.3-1.3,14.7-8.3h1.5l-2.7,10.6L445.9,147.9L445.9,147.9z"/>
	<path class="st0" d="M145.5,210.2c4.5-0.2,5.6-0.6,5.6-4.8V175h-4.9c-4.6,0-6.4,1.9-7.7,7.2h-1.7l0.9-10.1h34.7l0.9,10.1h-1.8
		c-1.3-5.3-3.1-7.2-7.7-7.2H159v30.4c0,4.1,1.1,4.6,5.6,4.8v1.5h-19.1L145.5,210.2L145.5,210.2z"/>
	<path class="st0" d="M191.1,205.4c0,4.1,1.1,4.6,5.8,4.8v1.5h-19.5v-1.5c4.7-0.2,5.8-0.6,5.8-4.8v-27c0-4.1-1.1-4.6-5.8-4.8v-1.5
		h19.5v1.5c-4.7,0.2-5.8,0.6-5.8,4.8V205.4z"/>
	<path class="st0" d="M238.4,172.1h13.6v1.5c-3.8,0.2-4.9,0.6-4.9,4.8v27c0,4.1,1.1,4.6,4.9,4.8v1.5h-17.8v-1.5c3.9-0.2,5-0.6,5-4.8
		v-27.8h-0.1l-13.2,34.5h-1.8l-12.9-34.5h-0.1v26.7c0,3.8,1,5.4,5.4,5.9v1.5h-14v-1.5c4.3-0.5,5.3-2,5.3-5.9v-26.9
		c0-2.7-1.2-3.8-5.3-3.8v-1.5h14.4l10.5,27.4L238.4,172.1z"/>
	<path class="st0" d="M257.7,211.6v-1.5c3.8-0.2,4.9-0.6,4.9-4.8v-27c0-4.1-1.1-4.6-4.9-4.8v-1.5h33l0.2,8.7h-1.6
		c-1.4-4.4-2.9-5.8-10.7-5.8h-6c-1.8,0-2.2,0.4-2.2,2v12.5h6.7c6.2,0,7.5-1.1,8.3-5.2h1.5v14h-1.5c-0.8-4.6-3.1-5.8-8.3-5.8h-6.7
		v13.7c0,2.4,0.7,3.2,7.7,3.2c7.1,0,11.3-1.3,14.7-8.3h1.5l-2.7,10.6L257.7,211.6L257.7,211.6z"/>
	<path class="st0" d="M299.4,199.2h1.5c1.7,5.2,6.7,10.7,12.5,10.7c5,0,6.8-3.5,6.8-6.6c0-9.1-20.5-10.8-20.5-22
		c0-5.5,5.3-10.1,11.3-10.1c5.9,0,8,2.1,10.6,2.1c1.1,0,1.8-0.9,2.1-2.1h1.5v12.6h-1.5c-1.6-5.7-5.7-9.9-11-9.9
		c-4.4,0-6.1,2.8-6.1,5.5c0,8.1,20.5,8.3,20.5,22.2c0,6.2-5.1,11-12.2,11c-7,0-8.8-2.4-11.5-2.4c-1,0-1.7,0.7-2,2h-2.1V199.2z"/>
</g>
</svg>
