<?xml version="1.0" encoding="utf-8"?>
<!-- Generator: Adobe Illustrator 19.1.0, SVG Export Plug-In . SVG Version: 6.00 Build 0)  -->
<!DOCTYPE svg PUBLIC "-//W3C//DTD SVG 1.1//EN" "http://www.w3.org/Graphics/SVG/1.1/DTD/svg11.dtd">
<svg version="1.1" id="Layer_1" xmlns="http://www.w3.org/2000/svg" xmlns:xlink="http://www.w3.org/1999/xlink" x="0px" y="0px"
	 viewBox="0 0 480 320" style="enable-background:new 0 0 480 320;" xml:space="preserve">
<style type="text/css">
	.st0{fill:#FFFFFF;}
</style>
<g>
	<g>
		<path class="st0" d="M299.8,149c4.4,0,10.5,0.7,16.4,1.7c0.6,0.1,1,0,1.4-0.3c0.4-0.3,0.7-0.8,0.8-1.3l1.2-9.7
			c0.1-1-0.4-1.9-1.4-2.1c-5.9-1.4-12.5-2.2-18.8-2.2c-17.5,0-26.4,7.3-26.4,21.6v32.3c0,14.4,8.9,21.6,26.4,21.6
			c6.3,0,13-0.8,18.8-2.2c0.9-0.2,1.6-1.1,1.4-2.1l-1.2-9.7c-0.1-0.6-0.3-1-0.8-1.2c-0.4-0.3-0.9-0.4-1.4-0.3
			c-5.9,1-12,1.7-16.4,1.7c-8.6,0-11.6-2.5-11.6-10.1v-27.7C288.3,151.5,291.2,149,299.8,149"/>
		<path class="st0" d="M185,136.1h-11.5c-1,0-1.9,0.9-1.9,1.9v27.7h-25V138c0-1-0.9-1.9-1.9-1.9h-11.4c-1,0-1.9,0.9-1.9,1.9v69.8
			c0,1,0.9,1.9,1.9,1.9h11.4c1,0,1.9-0.9,1.9-1.9v-28.5h25v28.5c0,1,0.9,1.9,1.9,1.9H185c1,0,1.9-0.9,1.9-1.9V138
			C186.9,137,186,136.1,185,136.1"/>
		<path class="st0" d="M398.3,154.4c-5.5,0-12.4,0.9-17.3,2.2c-0.9,0.2-1.6,1.2-1.3,2.1l1.3,8c0.1,0.6,0.3,1,0.8,1.2
			c0.4,0.3,0.9,0.4,1.4,0.3c4.5-0.9,9.3-1.4,13.3-1.4c8,0,9.2,1.7,9.2,7.1v4.8h-11.9c-11.3,0-16.2,4.7-16.2,15.6
			c0,10.4,5.3,16.5,14.5,16.5c5.3,0,10.6-1.4,15.2-4.2l0.4,1.8c0.2,0.8,1,1.3,1.8,1.3h9c1,0,1.9-0.9,1.9-1.9v-33.6
			C420.4,159.8,414.5,154.4,398.3,154.4 M405.7,189.9v6.5c-1.8,1-5.1,2.3-9.1,2.3c-3.4,0-4.5-1-4.5-4.5c0-3.3,0.7-4.4,4.8-4.4h8.9
			V189.9z"/>
		<path class="st0" d="M458.8,198.9c-0.1-0.6-0.3-1-0.8-1.3c-0.4-0.3-1-0.3-1.4-0.2c-2,0.4-3.8,0.8-5.3,0.8c-2.8,0-4-1.2-4-3.9
			v-26.7H458c1,0,1.9-0.9,1.9-1.9v-8.3c0-1-0.9-1.9-1.9-1.9h-10.7v-12.8c0-0.6-0.2-1.1-0.7-1.4c-0.4-0.3-1-0.6-1.4-0.4l-11.1,1.6
			c-0.9,0.1-1.6,0.9-1.6,1.9v11.3h-6c-1,0-1.9,0.9-1.9,1.9v8.3c0,1,0.9,1.9,1.9,1.9h6v28.5c0,9.7,5.1,14.7,15.3,14.7
			c2.9,0,7.8-0.7,11-1.8c0.9-0.3,1.3-1.1,1.2-2L458.8,198.9z"/>
		<path class="st0" d="M209.1,155.5H198c-1,0-1.9,0.9-1.9,1.9v50.4c0,1,0.9,1.9,1.9,1.9h11.1c1,0,1.9-0.9,1.9-1.9v-50.4
			C211,156.3,210.1,155.5,209.1,155.5"/>
		<path class="st0" d="M209.1,134H198c-1,0-1.9,0.9-1.9,1.9v11c0,1,0.9,1.9,1.9,1.9h11.1c1,0,1.9-0.9,1.9-1.9v-11
			C211,134.9,210.1,134,209.1,134"/>
		<path class="st0" d="M209.1,155.5H198c-1,0-1.9,0.9-1.9,1.9v50.4c0,1,0.9,1.9,1.9,1.9h11.1c1,0,1.9-0.9,1.9-1.9v-50.4
			C211,156.3,210.1,155.5,209.1,155.5"/>
		<path class="st0" d="M248.4,154.4c-5.9,0-11.2,1.7-16.2,5l-0.8-2.5c-0.2-0.8-1-1.3-1.8-1.3H221c-1,0-1.9,0.9-1.9,1.9v71.9
			c0,1,0.9,1.9,1.9,1.9h11.1c1,0,1.9-0.9,1.9-1.9v-19.8c4.3,0.9,9.2,1.3,13.3,1.3c12.1,0,18.2-6.5,18.2-19.4v-17.9
			C265.5,157.7,256.2,154.4,248.4,154.4 M250.6,173.1v18.6c0,4.4-1.7,6.2-5.8,6.2c-4.2,0-8.6-0.8-10.9-1.2v-25.1
			c2.4-2.1,6.8-4.3,11-4.3C249.1,167.3,250.6,168.9,250.6,173.1"/>
		<path class="st0" d="M359.2,154.4c-5.4,0-12.6,1.8-18.4,4.5v-23c0-1-0.9-1.9-1.9-1.9h-11.1c-1,0-1.9,0.9-1.9,1.9v71.9
			c0,1,0.9,1.9,1.9,1.9h11.1c1,0,1.9-0.9,1.9-1.9v-35c4-2,9.5-4.1,13-4.1c2.4,0,3.4,0.9,3.4,3.4v35.7c0,1,0.9,1.9,1.9,1.9h11.1
			c1,0,1.9-0.9,1.9-1.9v-37.1C371.9,159.9,367.6,154.4,359.2,154.4"/>
	</g>
	<g>
		<path class="st0" d="M147.5,89.8c-0.1-0.3-0.3-0.4-0.7-0.4h-6.5c-0.3,0-0.6,0.2-0.7,0.4l-8.2,26c-0.1,0.2,0,0.4,0.1,0.7
			c0.1,0.2,0.3,0.3,0.6,0.3h4.4c0.3,0,0.6-0.2,0.7-0.4l5.6-19.2c0,0,0.1-0.4,0.7-0.4c0.6,0,0.7,0.4,0.7,0.4l2.7,9.1h-3.5
			c-0.3,0-0.6,0.2-0.7,0.6l-1,3.5c-0.1,0.2,0,0.4,0.1,0.7c0.1,0.2,0.3,0.3,0.6,0.3h6l1.6,5.1c0.1,0.3,0.3,0.4,0.7,0.4h4.5
			c0.2,0,0.4-0.1,0.6-0.3c0.1-0.2,0.2-0.4,0.1-0.7L147.5,89.8z"/>
		<path class="st0" d="M167.1,112.8c0-0.2-0.1-0.3-0.3-0.4c-0.1-0.1-0.3-0.1-0.6-0.1c-0.8,0.2-1.4,0.3-2,0.3c-1,0-1.4-0.4-1.4-1.4
			v-10h4c0.3,0,0.7-0.3,0.7-0.7v-3.1c0-0.3-0.3-0.7-0.7-0.7h-4v-4.8c0-0.2-0.1-0.4-0.2-0.6c-0.1-0.1-0.3-0.2-0.6-0.1l-4.1,0.6
			c-0.3,0-0.6,0.3-0.6,0.7v4.2h-2.2c-0.4,0-0.7,0.3-0.7,0.7v3.1c0,0.3,0.3,0.7,0.7,0.7h2.2v10.6c0,3.7,1.9,5.5,5.6,5.5
			c1.1,0,2.9-0.2,4.1-0.7c0.3-0.1,0.6-0.4,0.4-0.8L167.1,112.8z"/>
		<path class="st0" d="M174.7,88.8h-4.1c-0.3,0-0.7,0.3-0.7,0.7v26.6c0,0.3,0.3,0.7,0.7,0.7h4.1c0.3,0,0.7-0.3,0.7-0.7V89.5
			C175.4,89.2,175.1,88.8,174.7,88.8"/>
		<path class="st0" d="M185.3,96.1c-2.1,0-4.7,0.3-6.4,0.9c-0.3,0.1-0.6,0.4-0.6,0.8l0.4,3c0,0.2,0.1,0.3,0.3,0.4
			c0.1,0.1,0.3,0.1,0.6,0.1c1.7-0.3,3.4-0.6,5-0.6c3,0,3.4,0.7,3.4,2.7v1.8h-4.4c-4.2,0-6,1.8-6,5.9c0,3.9,2,6.1,5.4,6.1
			c2,0,4-0.6,5.6-1.6l0.2,0.7c0.1,0.3,0.3,0.6,0.7,0.6h3.3c0.3,0,0.7-0.3,0.7-0.7v-12.5C193.6,98.1,191.4,96.1,185.3,96.1
			 M188,109.4v2.4c-0.7,0.3-1.9,0.9-3.4,0.9c-1.3,0-1.7-0.4-1.7-1.7c0-1.2,0.2-1.7,1.8-1.7H188z"/>
		<path class="st0" d="M203.9,104.3c-2.5-0.7-2.5-0.7-2.5-2.1c0-0.9,0.1-1.4,2.2-1.4c1.4,0,3.5,0.2,5,0.4c0.2,0,0.3,0,0.6-0.1
			c0.1-0.1,0.2-0.3,0.3-0.4l0.4-3.1c0-0.3-0.2-0.7-0.6-0.8c-1.6-0.3-3.8-0.6-5.6-0.6c-6.3,0-7.6,2.4-7.6,6c0,4,0.8,5.3,5.5,6.4
			c3.2,0.8,3.2,1.3,3.2,2.3c0,1.2-0.1,1.7-2.2,1.7c-1.7,0-3.7-0.2-5.3-0.8c-0.2,0-0.4,0-0.6,0.1c-0.2,0.1-0.3,0.2-0.3,0.4l-0.6,3
			c-0.1,0.3,0.1,0.7,0.4,0.8c1.9,0.7,4.5,1,6.5,1c6.1,0,7.4-2.5,7.4-6.4C210.2,106.6,209.4,105.8,203.9,104.3"/>
		<path class="st0" d="M219.8,104.3c-2.5-0.7-2.5-0.7-2.5-2.1c0-0.9,0.1-1.4,2.2-1.4c1.4,0,3.5,0.2,5,0.4c0.2,0,0.4,0,0.6-0.1
			c0.1-0.1,0.2-0.3,0.2-0.4l0.4-3.1c0-0.3-0.2-0.7-0.6-0.8c-1.6-0.3-3.8-0.6-5.6-0.6c-6.3,0-7.6,2.4-7.6,6c0,4,0.8,5.3,5.5,6.4
			c3.2,0.8,3.2,1.3,3.2,2.3c0,1.2-0.1,1.7-2.2,1.7c-1.7,0-3.7-0.2-5.3-0.8c-0.2,0-0.3,0-0.6,0.1c-0.1,0.1-0.3,0.2-0.3,0.4l-0.6,3
			c-0.1,0.3,0.1,0.7,0.4,0.8c1.9,0.7,4.5,1,6.5,1c6.1,0,7.4-2.5,7.4-6.4C226,106.6,225.4,105.8,219.8,104.3"/>
		<path class="st0" d="M233.2,88.8h-4.1c-0.3,0-0.7,0.3-0.7,0.7v3.7c0,0.4,0.3,0.7,0.7,0.7h4.1c0.3,0,0.7-0.3,0.7-0.7v-3.7
			C233.9,89.2,233.6,88.8,233.2,88.8"/>
		<path class="st0" d="M233.2,96.6h-4.1c-0.3,0-0.7,0.3-0.7,0.7v18.8c0,0.3,0.3,0.7,0.7,0.7h4.1c0.3,0,0.7-0.3,0.7-0.7V97.2
			C233.9,96.9,233.6,96.6,233.2,96.6"/>
		<path class="st0" d="M243.9,96.1c-2.1,0-4.7,0.3-6.4,0.9c-0.3,0.1-0.6,0.4-0.6,0.8l0.4,3c0,0.2,0.1,0.3,0.3,0.4
			c0.1,0.1,0.3,0.1,0.6,0.1c1.7-0.3,3.4-0.6,5-0.6c3,0,3.4,0.7,3.4,2.7v1.8h-4.4c-4.2,0-6,1.8-6,5.9c0,3.9,2,6.1,5.4,6.1
			c2,0,4-0.6,5.6-1.6l0.2,0.7c0.1,0.3,0.3,0.6,0.7,0.6h3.3c0.3,0,0.7-0.3,0.7-0.7v-12.5C252.2,98.1,250,96.1,243.9,96.1
			 M246.6,109.4v2.4c-0.7,0.3-1.9,0.9-3.4,0.9c-1.3,0-1.7-0.4-1.7-1.7c0-1.2,0.2-1.7,1.8-1.7H246.6z"/>
		<path class="st0" d="M267.5,96.1c-2.2,0-5.2,0.8-7.6,1.9l-0.3-1c-0.1-0.3-0.3-0.6-0.7-0.6h-3.1c-0.3,0-0.7,0.3-0.7,0.7V116
			c0,0.3,0.3,0.7,0.7,0.7h4.1c0.3,0,0.7-0.3,0.7-0.7v-13.1c1.4-0.8,3.5-1.6,4.9-1.6c0.9,0,1.2,0.3,1.2,1.2v13.3
			c0,0.3,0.3,0.7,0.7,0.7h4.1c0.4,0,0.7-0.3,0.7-0.7V102C272.1,98.2,270.6,96.1,267.5,96.1"/>
	</g>
	<g>
		<path class="st0" d="M95.2,182.3c0-1-0.8-2-2-2c-0.4,0-0.9,0.1-1.3,0.4c-4.9,4.4-13.3,8.3-23.4,8.3l0,0c-10.1,0-18.3-4.1-23.4-8.3
			c-0.3-0.2-0.9-0.4-1.3-0.4c-1.2,0-1.9,1-1.9,2.1c0,0.9,0.6,1.6,1.1,2.3c2.9,4.3,11.9,11.7,25.5,11.7h0.2
			c13.5,0,22.5-7.4,25.5-11.7C94.7,184.2,95.2,183.2,95.2,182.3z"/>
		<path class="st0" d="M108.7,216.2c-3.4-2-6.8-5.3-8.2-9.9c-0.3-0.9,0-1.7,0.7-2.1c10-7.8,16.3-18.9,16.3-31.3
			c0-23.3-21.8-42.1-48.7-42.1S20,149.6,20,172.9S41.8,215,68.7,215c3.5,0,7-0.3,10.3-0.9c0.8-0.1,1.4,0,2,0.3
			c6.6,4.1,16.6,7.5,25.4,7.5c2.8,0,3.9-1.8,3.9-3.4C110.1,217.5,109.5,216.8,108.7,216.2z M95.7,212.2c0.1,0.2,0.2,0.3,0.2,0.6
			c0,0.3-0.2,0.4-0.6,0.4c-2.4,0-10-4.1-14-7.4c-0.6-0.4-1.3-0.7-2.3-0.4c-3.3,0.7-6.8,1.1-10.3,1.1c-22.4,0-40.7-15.1-40.7-33.6
			s18.2-33.6,40.7-33.6c22.4,0,40.7,15,40.7,33.6c0,11.1-6.4,20.8-16.5,26.9c-0.7,0.4-1.3,1.2-1.3,2.1
			C91.3,204,93.2,208.9,95.7,212.2z"/>
	</g>
</g>
</svg>
