<?xml version="1.0" encoding="utf-8"?>
<!-- Generator: Adobe Illustrator 18.1.1, SVG Export Plug-In . SVG Version: 6.00 Build 0)  -->
<!DOCTYPE svg PUBLIC "-//W3C//DTD SVG 1.1//EN" "http://www.w3.org/Graphics/SVG/1.1/DTD/svg11.dtd">
<svg version="1.1" id="Layer_1" xmlns="http://www.w3.org/2000/svg" xmlns:xlink="http://www.w3.org/1999/xlink" x="0px" y="0px"
	 viewBox="0 0 600 86.2" enable-background="new 0 0 600 86.2" xml:space="preserve">
<g>
	<linearGradient id="SVGID_1_" gradientUnits="userSpaceOnUse" x1="213.1943" y1="22.8354" x2="234.2592" y2="34.9972">
		<stop  offset="0" style="stop-color:#D9E0E2"/>
		<stop  offset="0.75" style="stop-color:#FFFFFF"/>
	</linearGradient>
	<path fill="url(#SVGID_1_)" d="M247.3,0l-13.5,40l-8.3-32.6C223.5,0,221.1,0,219.7,0c0,0-3,0-6.1,0.9l-6.5,29l12.6,56.3h25.2
		L276.8,0H247.3z"/>
	<linearGradient id="SVGID_2_" gradientUnits="userSpaceOnUse" x1="156.9483" y1="35.6582" x2="185.226" y2="51.9844">
		<stop  offset="0" style="stop-color:#D9E0E2"/>
		<stop  offset="0.75" style="stop-color:#FFFFFF"/>
	</linearGradient>
	<path fill="url(#SVGID_2_)" d="M183.6,40.1L173.2,7.5c-2.2-7-5.4-7.5-7.3-7.5c0,0-3.6,0-7.4,0.9v50.6L172,86.2l4,0l13.2-0.9
		L183.6,40.1z"/>
	<path fill="#FFFFFF" d="M219.7,0l-22.9,0c-1.7,0-6.2,0-7.5,7.4L176,86.2h20.9L214,7.4C215.6,0,219.2,0,219.7,0z"/>
	<linearGradient id="SVGID_3_" gradientUnits="userSpaceOnUse" x1="8.2156" y1="46.5958" x2="86.5422" y2="32.7847">
		<stop  offset="0" style="stop-color:#FFFFFF"/>
		<stop  offset="0.7" style="stop-color:#FFFFFF"/>
		<stop  offset="1" style="stop-color:#D9E0E2"/>
	</linearGradient>
	<path fill="url(#SVGID_3_)" d="M80.9,0.9c0,0-3.7-0.9-7.4-0.9H0l9.1,24.6h22.6v61.5h24.6V24.6h24.6V0.9z"/>
	<path fill="#FFFFFF" d="M142.5,0c-4.1,0-7.4,3.3-7.4,7.4v31.1L108.5,4.9c-2.4-3.2-6.3-4.9-9.8-4.9L73.5,0c0,0,6.2,0,6.2,7.4v78.8
		h24.6V39.2l33.5,42.4c2.4,3,6,4.6,9.7,4.6h12.2V7.4c0-4.4,2.8-7.4,6.2-7.4H142.5z"/>
</g>
<g>
	<path fill="#FF4020" d="M375.2,43c-2.4,5.1-5.4,9.9-9,14.5s-7,8.3-10.3,11.1c-3.3,2.8-6.4,5-9.2,6.7s-4.9,2.5-6.3,2.5
		s-3.5-0.8-6.3-2.4c-2.8-1.6-5.9-3.8-9.2-6.6c-3.3-2.8-6.8-6.5-10.3-11.1c-3.6-4.6-6.5-9.4-9-14.5c-2.5-5.4-3.9-10.4-4-15
		c-0.1-4.6,0.7-8.2,2.5-11c1.8-2.8,4.1-4.9,6.9-6.4c2.8-1.5,5.8-2.2,9-2.2c3.8,0,7.2,1.1,10.2,3.2c2.4,1.7,4.5,3.6,6.2,5.9
		c1.7,2.2,2.8,4,3.3,5.4l0.7,2.1c0.2-0.6,0.4-1.4,0.8-2.3c0.3-1,1.4-2.7,3.2-5c1.8-2.4,3.9-4.4,6.3-6.1c3.1-2.1,6.6-3.2,10.6-3.2
		c2.5,0,5,0.5,7.2,1.4c2.3,1,4.3,2.4,6.1,4.3c1.8,1.9,3.1,4.2,3.9,6.9c0.9,2.7,1,5.9,0.5,9.7C378.5,34.6,377.3,38.7,375.2,43z"/>
</g>
<g>
	<path fill="#FFFFFF" d="M440.9,5.6l33.6,70V25.2c0-6.5,0-10.1-0.1-10.8c-0.8-4.3-2.8-6.5-6.3-6.5c-0.7,0-1.7,0.1-3,0.3
		c-1.3,0.2-2.3,0.3-3,0.3c-1.1,0-2-0.4-2.8-1.2c-0.8-0.8-1.2-1.7-1.2-2.8c0-3,1.9-4.5,5.6-4.5c0.8,0,1.3,0,1.6,0.1l5.6,0.8
		c2.5,0.3,4.8,0.5,7,0.5c2.2,0,5.1-0.2,8.6-0.7c1.3-0.2,2.7-0.3,4.4-0.6c0.2,0,0.5,0,0.9-0.1c0.3,0,0.6,0,0.9,0
		c3.6,0,5.4,1.4,5.4,4.3c0,2.8-1.7,4.2-5.1,4.2c-0.6,0-1.1,0-1.4,0h-1.3c-2.6,0-4.2,0.5-5,1.6c-0.8,1.1-1.2,3.5-1.4,7.1v7.1v12.8
		v33.4c0,5.8-0.7,9.8-2,12.1c-1.3,2.3-3.5,3.5-6.7,3.5c-4.1,0-7.6-2.9-10.4-8.8l-33-68.3v58.2c0,6.3,2.1,9.4,6.4,9.4
		c0.7,0,1.7-0.1,3-0.2c1.3-0.1,2.3-0.2,3-0.2c2.7,0,4,1.3,4,4c0,2.8-1.9,4.3-5.6,4.3c-0.2,0-0.4,0-0.8,0c-0.4-0.1-0.7-0.1-0.9-0.1
		l-5.1-0.8c-2.8-0.4-5.5-0.6-8-0.6c-2.2,0-5,0.2-8.4,0.6l-6.1,0.8c-0.2,0-0.5,0-0.9,0.1c-0.4,0-0.8,0-1,0c-3.6,0-5.4-1.5-5.4-4.4
		c0-2.6,1.3-3.9,4-3.9c0.4,0,1.5,0.1,3.4,0.3c0.9,0.3,1.8,0.4,2.6,0.4c4.3,0,6.4-3.1,6.4-9.4v-8.8v-11V37.1V17.3
		c0-6.3-2.2-9.4-6.5-9.4c-0.6,0-1.4,0.1-2.5,0.3c-1.6,0.3-2.7,0.4-3.5,0.4c-2.7,0-4-1.4-4-4.1c0-2.9,1.8-4.4,5.4-4.4
		c0.5,0,1.2,0,2,0.1c4.2,0.4,7.4,0.6,9.6,0.6c1.2,0,3.1-0.1,5.6-0.4s4.4-0.4,5.6-0.4c2.6,0,4.3,0.9,5.1,2.6L440.9,5.6z"/>
	<path fill="#FFFFFF" d="M547.7,59c0-0.3,0-1.1,0-2.4c-0.1-1.3-0.1-2.5-0.1-3.4l-24.3-38.6c-1.6-2.5-2.6-4-3-4.4
		c-1.3-1.3-2.8-1.9-4.6-1.9c-1,0-1.8,0.2-2.3,0.5c-0.3,0-0.6,0-1.1,0c-0.6,0-1,0-1.3,0c-3.8,0-5.8-1.5-5.8-4.4c0-3,1.7-4.5,5-4.5
		c1.3,0,3,0.2,5,0.5c4,0.7,7.8,1,11.3,1c2.6,0,6.5-0.4,11.6-1.1c1.8-0.3,3.3-0.4,4.5-0.4c3.4,0,5.1,1.4,5.1,4.3c0,2.8-2,4.1-6.1,4.1
		h-1.3h-3.1h-2.5c-1-0.1-1.5,0.3-1.5,1c0,0.3,0,0.6,0.1,0.7c0.1,0.1,0.3,0.5,0.6,1.1l19.2,32.6l19.4-32.6c0.4-0.7,0.6-1.3,0.6-2
		c0-0.8-0.5-1.1-1.6-1.1h-0.3l-2.3,0.4l-3.3,0.3c-1.4,0.1-2.5,0.2-3.3,0.2c-3.4,0-5.1-1.5-5.1-4.4c0-3,1.7-4.4,5-4.4
		c1.3,0,2.8,0.1,4.5,0.4c4.7,0.7,8.7,1,12.1,1c3.6,0,7.6-0.3,11.9-1c1.7-0.3,3.1-0.4,4.3-0.4c3.2,0,4.8,1.5,4.8,4.4
		c0,2.7-1.5,4-4.6,4c-1.3,0-2.2-0.1-2.9-0.3c-1.3-0.2-2.3-0.3-2.8-0.3c-2.2,0-3.9,1-5.3,3l-1.9,2.9l-24.7,38.7v5.3
		c0,8.5,0.4,13.8,1.1,15.9c0.7,2.1,2.5,3.1,5.3,3.1c0.7,0,1.7-0.1,3.1-0.3c1.4-0.2,2.4-0.3,3.1-0.3c2.6,0,3.9,1.3,3.9,4
		c0,3-1.9,4.5-5.6,4.5c-0.1,0-0.3,0-0.8,0c-0.3-0.1-0.6-0.1-0.9-0.1l-6.9-0.9c-2.6-0.3-5.1-0.5-7.6-0.5c-2.7,0-5.2,0.2-7.6,0.5
		l-6.4,0.9c-0.2,0-0.4,0-0.8,0.1c-0.4,0-0.7,0-0.9,0c-3.8,0-5.6-1.5-5.6-4.4c0-2.8,1.3-4.1,4-4.1c0.7,0,1.6,0.1,2.9,0.3
		c1.3,0.2,2.3,0.3,2.9,0.3c3.5,0,5.6-2.2,6.4-6.7C547.6,69.4,547.7,65.7,547.7,59z"/>
</g>
</svg>
